<svg width="219" height="71" viewBox="0 0 219 71" fill="none" xmlns="http://www.w3.org/2000/svg">
<path d="M54.66 49.526H50.366C50.746 49.5513 51.1133 49.5133 51.468 49.412C51.012 49.336 50.3913 49.298 49.606 49.298C50.2393 49.3233 50.784 49.2853 51.24 49.184C50.708 49.108 49.948 49.07 48.96 49.07C49.264 49.0953 49.5933 49.0573 49.948 48.956C49.6187 48.9307 49.1373 48.8673 48.504 48.766C50.0747 48.766 51.2527 48.728 52.038 48.652C51.6327 48.6013 51.0247 48.5633 50.214 48.538C49.4287 48.5127 48.8333 48.4747 48.428 48.424C48.656 48.424 48.9347 48.3607 49.264 48.234C49.0613 48.1833 48.77 48.0947 48.39 47.968C48.5673 48.0187 48.7953 47.9933 49.074 47.892C48.9727 47.892 48.7067 47.7653 48.276 47.512C46.4773 49.2347 44.3367 50.096 41.854 50.096C41.2207 50.096 40.4987 50.0453 39.688 49.944C40.068 49.9693 40.3467 49.944 40.524 49.868C40.3467 49.8173 40.0553 49.7793 39.65 49.754C39.27 49.7033 38.9913 49.6527 38.814 49.602C39.194 49.6273 39.4727 49.602 39.65 49.526C39.2447 49.4753 38.7127 49.3993 38.054 49.298C38.51 49.3233 38.928 49.2853 39.308 49.184C38.7507 49.0067 38.1047 48.918 37.37 48.918C37.294 48.5887 37.0913 48.424 36.762 48.424C37.1927 48.4493 37.598 48.4113 37.978 48.31C37.6487 48.2593 37.028 48.234 36.116 48.234C36.344 48.1833 37.7247 48.0693 40.258 47.892C39.2193 47.8667 37.7247 47.7907 35.774 47.664C36.2047 47.6133 36.914 47.5373 37.902 47.436C37.8007 47.3093 37.5727 47.246 37.218 47.246C36.8887 47.2207 36.724 47.208 36.724 47.208C36.724 47.1827 36.7367 47.1573 36.762 47.132C36.6353 47.0813 36.3567 47.0433 35.926 47.018C35.5967 47.018 35.432 46.9167 35.432 46.714C35.432 46.486 35.204 46.372 34.748 46.372C35.052 46.3973 35.3687 46.3593 35.698 46.258C35.5713 46.2327 35.356 46.1693 35.052 46.068C34.7733 45.9413 34.5707 45.8653 34.444 45.84C34.7733 45.7893 35.204 45.7133 35.736 45.612C35.3307 45.46 34.938 45.384 34.558 45.384C34.634 45.4093 34.824 45.3713 35.128 45.27C35.0773 45.2193 34.976 45.1813 34.824 45.156C34.6973 45.1307 34.634 45.0927 34.634 45.042C34.634 44.9913 34.6593 44.8773 34.71 44.7C34.6847 44.5987 34.6087 44.5353 34.482 44.51C34.3553 44.4847 34.292 44.434 34.292 44.358C34.292 44.3073 34.33 44.1933 34.406 44.016C34.4313 43.9653 34.33 43.8387 34.102 43.636L37.636 43.56C36.876 43.5093 35.812 43.4333 34.444 43.332C34.8493 43.3573 35.1787 43.3193 35.432 43.218C35.4067 43.1927 35.204 43.142 34.824 43.066C34.596 42.99 34.4693 42.838 34.444 42.61C34.4693 42.458 34.482 42.2553 34.482 42.002C34.6593 42.0273 34.8873 42.002 35.166 41.926C34.9887 41.7993 34.7733 41.736 34.52 41.736C34.672 41.6093 34.786 41.394 34.862 41.09C35.166 41.0393 35.5207 40.9507 35.926 40.824C35.4447 40.672 35.0773 40.596 34.824 40.596C35.0267 40.596 35.508 40.5327 36.268 40.406C36.0147 40.3553 35.6347 40.2793 35.128 40.178C35.4827 40.2033 35.7613 40.1653 35.964 40.064C35.7107 39.7853 35.508 39.6713 35.356 39.722C35.9387 39.722 36.8507 39.6967 38.092 39.646C37.408 39.5953 36.382 39.5193 35.014 39.418C35.4193 39.4433 35.736 39.4053 35.964 39.304C35.812 39.2533 35.4573 39.228 34.9 39.228C35.2293 39.1773 35.7487 39.0887 36.458 38.962C36.1793 38.8353 35.7107 38.772 35.052 38.772C35.9133 38.772 36.5847 38.734 37.066 38.658C36.8887 38.6327 36.5973 38.6073 36.192 38.582C35.812 38.5313 35.5333 38.4807 35.356 38.43C35.6347 38.43 35.964 38.3667 36.344 38.24C36.1667 38.164 35.8373 38.126 35.356 38.126C35.6093 38.126 35.9133 38.05 36.268 37.898C36.116 37.8473 35.85 37.822 35.47 37.822C35.7233 37.7713 36.1033 37.6827 36.61 37.556C36.306 37.4547 35.9133 37.4293 35.432 37.48C35.736 37.48 36.0147 37.442 36.268 37.366C36.0653 37.2647 35.8373 37.2267 35.584 37.252C35.6093 37.2267 35.622 37.214 35.622 37.214C35.3687 37.138 35.242 37.0493 35.242 36.948C35.242 36.872 35.3813 36.7707 35.66 36.644C35.356 36.5173 34.5327 36.378 33.19 36.226C33.5953 36.1247 34.3553 35.9473 35.47 35.694C35.6473 35.7193 35.7993 35.732 35.926 35.732C36.1793 35.732 36.5087 35.694 36.914 35.618C36.838 35.542 36.6607 35.504 36.382 35.504C36.6353 35.504 36.8633 35.466 37.066 35.39C37.0153 35.314 36.8 35.2887 36.42 35.314C36.9267 35.2633 37.712 35.1873 38.776 35.086C37.9907 34.9847 37.0913 34.9467 36.078 34.972C36.382 34.9973 36.7113 34.9593 37.066 34.858C36.8127 34.782 36.458 34.744 36.002 34.744C36.306 34.7693 36.5847 34.7313 36.838 34.63C36.686 34.5793 36.4707 34.516 36.192 34.44C36.5213 34.3893 37.0407 34.3133 37.75 34.212C37.4207 34.1107 37.066 34.0727 36.686 34.098C37.9527 34.098 38.9027 34.06 39.536 33.984C38.8267 33.908 37.7753 33.87 36.382 33.87C36.9647 33.87 37.4967 33.8067 37.978 33.68C36.7873 33.5787 35.3813 33.414 33.76 33.186C35.9387 33.2367 37.8513 33.186 39.498 33.034C39.1687 32.9833 38.6873 32.9453 38.054 32.92C37.446 32.8693 36.99 32.8313 36.686 32.806C36.9647 32.806 37.294 32.73 37.674 32.578C37.3193 32.426 36.9013 32.35 36.42 32.35C37.7373 32.35 38.814 32.2867 39.65 32.16C39.0673 32.084 38.13 32.046 36.838 32.046C37.0407 32.0207 37.408 31.9827 37.94 31.932C38.4973 31.8813 38.8647 31.8433 39.042 31.818C38.358 31.7167 37.56 31.6787 36.648 31.704C37.028 31.7293 37.484 31.6913 38.016 31.59C37.712 31.4887 37.3573 31.4507 36.952 31.476C37.6867 31.476 38.282 31.4507 38.738 31.4C38.4087 31.324 37.8133 31.286 36.952 31.286C37.3573 31.286 37.636 31.1593 37.788 30.906C38.4467 30.906 38.89 30.8807 39.118 30.83C38.7633 30.7287 38.1427 30.7033 37.256 30.754C37.484 30.678 38.32 30.564 39.764 30.412C39.5107 30.3107 38.3833 30.2853 36.382 30.336C34.5073 30.412 33.5067 30.3487 33.38 30.146C33.4307 30.07 34.14 30.0067 35.508 29.956C36.8 29.9053 37.4207 29.842 37.37 29.766C37.6487 29.8167 37.9147 29.7407 38.168 29.538C37.9653 29.4367 37.636 29.3353 37.18 29.234C37.2053 29.0313 37.332 28.7653 37.56 28.436C37.5853 28.36 37.8893 28.322 38.472 28.322C38.8267 28.322 39.1687 28.322 39.498 28.322C39.6753 28.2967 39.8273 28.2713 39.954 28.246C39.0167 28.094 38.1933 28.0307 37.484 28.056C37.6613 27.9547 38.168 27.828 39.004 27.676C38.9027 27.5747 38.7 27.524 38.396 27.524C37.9653 27.4987 37.7247 27.486 37.674 27.486C38.8393 27.5113 39.8907 27.4733 40.828 27.372C40.2453 27.3213 39.3587 27.2073 38.168 27.03C38.6747 27.0553 39.1813 27.03 39.688 26.954C39.384 26.9033 38.2313 26.8527 36.23 26.802C36.3567 26.802 36.838 26.8147 37.674 26.84C38.3073 26.7893 39.3333 26.6373 40.752 26.384C39.2573 26.1813 38.4213 26.08 38.244 26.08C38.6493 26.08 39.4853 25.9913 40.752 25.814C40.6 25.662 40.2327 25.5987 39.65 25.624C38.738 25.624 38.2567 25.624 38.206 25.624C38.5607 25.5987 39.1307 25.5733 39.916 25.548C40.7013 25.4973 41.2713 25.4593 41.626 25.434C41.2713 25.3833 40.714 25.3453 39.954 25.32C39.194 25.2693 38.6367 25.2313 38.282 25.206C38.8393 25.1553 39.6753 25.0793 40.79 24.978C40.3847 24.902 39.6627 24.864 38.624 24.864C39.1307 24.8893 39.6373 24.8513 40.144 24.75C37.8387 24.5727 35.4573 24.3447 33 24.066C35.432 24.0153 38.0667 23.9267 40.904 23.8C40.676 23.6987 40.182 23.6607 39.422 23.686C39.65 23.6607 40.0173 23.6227 40.524 23.572C41.0307 23.5213 41.4107 23.4833 41.664 23.458C41.284 23.3567 40.7013 23.3187 39.916 23.344C40.3973 23.3693 40.904 23.3313 41.436 23.23C41.132 23.154 40.7013 23.0527 40.144 22.926C40.828 22.8753 41.8793 22.7993 43.298 22.698C42.2593 22.546 41.512 22.47 41.056 22.47C40.9547 22.47 40.2833 22.4067 39.042 22.28C37.5727 22.128 36.8887 22.0267 36.99 21.976C36.99 21.9253 37.7373 21.9507 39.232 22.052C40.8533 22.128 41.5247 22.166 41.246 22.166C41.55 22.0393 41.8413 21.9887 42.12 22.014C42.5507 21.634 43.146 21.444 43.906 21.444C44.058 21.444 44.2987 21.4567 44.628 21.482C44.9827 21.5073 45.2487 21.52 45.426 21.52C45.806 21.52 46.1353 21.482 46.414 21.406C46.2113 21.33 45.0967 21.216 43.07 21.064C41.246 20.9373 40.3593 20.798 40.41 20.646C42.3607 20.722 44.6913 20.722 47.402 20.646C46.794 20.494 46.2873 20.418 45.882 20.418C47.554 20.418 48.808 20.38 49.644 20.304C48.808 20.228 47.7313 20.19 46.414 20.19C47.63 20.0633 48.7827 20 49.872 20C52.456 20 54.546 20.3927 56.142 21.178C58.2953 22.242 59.372 23.9267 59.372 26.232C59.372 27.2453 59.106 28.9047 58.574 31.21H49.378C49.4033 31.134 49.378 31.0453 49.302 30.944C49.226 30.8427 49.2007 30.754 49.226 30.678C49.5807 30.678 49.8973 30.6273 50.176 30.526C49.8467 30.374 49.568 30.298 49.34 30.298C50.1 30.298 50.6827 30.26 51.088 30.184C50.8093 30.1587 50.4547 30.0827 50.024 29.956C50.4547 29.9813 50.784 29.956 51.012 29.88C50.9107 29.804 50.594 29.766 50.062 29.766C49.7833 29.7407 49.6187 29.6773 49.568 29.576C49.6947 29.4493 49.8087 29.3733 49.91 29.348C50.0113 29.3227 50.0493 29.2593 50.024 29.158C50.1 29.082 50.822 29.0313 52.19 29.006C52.6207 28.9807 52.9247 28.9427 53.102 28.892C53.0767 28.8667 52.304 28.8287 50.784 28.778C50.404 28.778 50.2013 28.7273 50.176 28.626C50.1507 28.246 50.062 27.9673 49.91 27.79C50.6447 27.8153 51.2147 27.79 51.62 27.714C51.2653 27.638 50.746 27.6 50.062 27.6C50.0113 27.6 50.9613 27.486 52.912 27.258C52.4813 27.2327 51.8987 27.1947 51.164 27.144C51.1387 27.1187 50.7713 26.9667 50.062 26.688C50.1887 26.7387 50.29 26.764 50.366 26.764C50.4927 26.764 50.6953 26.7007 50.974 26.574C51.2527 26.4473 51.5187 26.346 51.772 26.27C51.468 26.2447 50.9993 26.1307 50.366 25.928C51.5567 25.9787 52.5067 25.9533 53.216 25.852C52.684 25.776 51.924 25.738 50.936 25.738C51.5693 25.7633 52.2153 25.7253 52.874 25.624C52.494 25.5987 51.9873 25.548 51.354 25.472C51.3287 25.2947 51.1387 25.206 50.784 25.206C50.5053 25.206 50.2267 25.206 49.948 25.206C50.2773 25.1553 50.746 25.0793 51.354 24.978C50.5433 24.8007 49.872 24.712 49.34 24.712C48.5547 24.712 47.9847 24.9147 47.63 25.32C47.2753 25.7 47.0093 26.346 46.832 27.258L43.526 42.8C43.3993 43.3827 43.336 43.8133 43.336 44.092C43.336 44.928 43.8933 45.346 45.008 45.346C45.464 45.346 46.0213 45.2827 46.68 45.156C46.5027 45.08 46.2747 45.0547 45.996 45.08C46.528 45.08 46.946 45.0293 47.25 44.928C47.1993 44.852 47.0347 44.8267 46.756 44.852C46.9333 44.852 47.1107 44.814 47.288 44.738C47.136 44.662 46.832 44.624 46.376 44.624C46.6547 44.6493 46.8827 44.6113 47.06 44.51C46.908 44.4593 46.6547 44.434 46.3 44.434L46.984 44.244C47.1613 44.2187 47.402 44.13 47.706 43.978C47.934 44.0287 48.314 43.9907 48.846 43.864C48.4153 43.8387 47.8327 43.7627 47.098 43.636C47.25 43.56 48.0987 43.4967 49.644 43.446C50.1 43.446 50.4547 43.408 50.708 43.332C49.872 43.2813 48.6307 43.1673 46.984 42.99C47.364 43.0153 47.744 42.9773 48.124 42.876C47.896 42.876 47.592 42.7747 47.212 42.572C46.9587 42.5467 46.946 42.5213 47.174 42.496C47.554 42.42 47.7693 42.3693 47.82 42.344C47.592 42.2933 47.3513 42.1793 47.098 42.002C47.5287 42.0273 47.8453 42.002 48.048 41.926C47.8707 41.8753 47.6427 41.7867 47.364 41.66C47.6427 41.5333 47.8073 41.5207 47.858 41.622C47.8327 41.5713 47.8073 41.5207 47.782 41.47C47.478 41.47 47.44 41.4573 47.668 41.432C48.0227 41.356 48.238 41.3053 48.314 41.28C48.162 41.204 47.8073 41.166 47.25 41.166C47.402 41.1407 47.63 41.1027 47.934 41.052C48.2633 41.0013 48.504 40.9633 48.656 40.938C48.4027 40.9127 47.9847 40.8493 47.402 40.748C47.5287 40.4693 47.7313 40.3047 48.01 40.254C48.314 40.2033 48.6307 40.14 48.96 40.064C48.8587 40.0387 48.6433 40.0133 48.314 39.988C48.01 39.9373 47.7947 39.8867 47.668 39.836C47.82 39.836 47.9973 39.798 48.2 39.722C48.428 39.6207 48.5927 39.5573 48.694 39.532C48.5167 39.456 48.314 39.342 48.086 39.19C49.15 39.19 49.872 39.152 50.252 39.076C49.2387 38.7213 48.504 38.582 48.048 38.658C48.276 38.658 48.7447 38.582 49.454 38.43C48.9727 38.4047 47.858 38.392 46.11 38.392C46.186 38.24 46.2747 38.0247 46.376 37.746C46.6547 37.7713 47.06 37.746 47.592 37.67C47.3387 37.6447 47.0853 37.6193 46.832 37.594C46.5027 37.5433 46.3253 37.4547 46.3 37.328C47.3387 37.3533 48.1113 37.328 48.618 37.252C48.1367 37.2267 47.3893 37.1633 46.376 37.062C46.4773 36.9353 46.7687 36.8213 47.25 36.72C47.1233 36.644 46.8573 36.606 46.452 36.606C46.6293 36.454 46.8447 36.302 47.098 36.15C47.0473 36.074 46.832 36.0487 46.452 36.074C46.5787 36.0487 46.7053 36.0233 46.832 35.998C46.8573 35.9727 46.9333 35.8207 47.06 35.542C47.0093 35.4913 46.984 35.466 46.984 35.466C47.2627 35.4407 47.592 35.39 47.972 35.314C47.7187 35.238 47.3893 35.1493 46.984 35.048C46.984 35.0987 46.9207 34.9213 46.794 34.516C47.174 34.516 47.44 34.4907 47.592 34.44C47.4653 34.3893 47.288 34.3007 47.06 34.174L57.966 34.022L54.66 49.526Z" fill="white"/>
<path d="M74.1944 45.498C74.093 45.7767 73.941 46.182 73.7384 46.714C73.409 47.626 72.5984 48.462 71.3064 49.222C70.0397 49.982 68.8617 50.4127 67.7724 50.514C67.747 50.514 67.6457 50.5267 67.4684 50.552C67.291 50.6027 67.1644 50.628 67.0884 50.628H65.2264L65.2644 50.514C64.8337 50.4887 64.2257 50.438 63.4404 50.362C63.339 50.3367 63.149 50.324 62.8704 50.324L64.2004 50.248C64.2257 50.248 64.289 50.21 64.3904 50.134C63.681 50.0833 62.5664 49.9567 61.0464 49.754H61.8064C61.857 49.7287 61.933 49.678 62.0344 49.602C61.781 49.5513 61.401 49.526 60.8944 49.526C61.0717 49.5007 61.3124 49.4753 61.6164 49.45C61.9457 49.4247 62.199 49.3993 62.3764 49.374C62.1737 49.3487 61.8697 49.3233 61.4644 49.298C61.059 49.2727 60.7677 49.2473 60.5904 49.222C60.8944 49.2473 61.1857 49.222 61.4644 49.146C61.1604 49.1713 60.831 49.0827 60.4764 48.88C60.6284 48.9053 60.793 48.8927 60.9704 48.842C60.8437 48.7913 60.6664 48.766 60.4384 48.766C60.793 48.766 61.0717 48.728 61.2744 48.652C61.097 48.576 60.8184 48.538 60.4384 48.538C60.641 48.538 60.8057 48.5127 60.9324 48.462C60.755 48.4113 60.451 48.386 60.0204 48.386C60.2737 48.3607 60.6537 48.3353 61.1604 48.31C61.667 48.2847 62.047 48.2593 62.3004 48.234C61.9964 48.2087 61.0084 48.1327 59.3364 48.006C59.8177 47.9553 60.5017 47.854 61.3884 47.702C61.2364 47.5753 60.945 47.5247 60.5144 47.55C59.8304 47.55 59.463 47.55 59.4124 47.55C59.7417 47.5247 60.223 47.4993 60.8564 47.474C61.515 47.4487 61.9964 47.4233 62.3004 47.398C62.2244 47.398 61.4517 47.3853 59.9824 47.36C59.9064 47.36 59.8177 47.3347 59.7164 47.284C59.615 47.208 59.5264 47.17 59.4504 47.17C60.4384 47.17 61.1857 47.1447 61.6924 47.094C61.3377 47.0433 60.7804 47.018 60.0204 47.018C60.2737 47.0433 60.527 47.018 60.7804 46.942C60.4257 46.8913 59.8684 46.866 59.1084 46.866C59.387 46.8407 59.843 46.79 60.4764 46.714C60.375 46.6887 59.881 46.6127 58.9944 46.486C59.4757 46.486 59.919 46.448 60.3244 46.372V46.334C60.0204 46.2833 59.691 46.258 59.3364 46.258C59.463 46.258 59.653 46.2073 59.9064 46.106C59.729 46.0553 59.463 45.9667 59.1084 45.84H59.7924C59.8177 45.84 59.8937 45.802 60.0204 45.726C59.843 45.65 59.539 45.5613 59.1084 45.46L59.2604 44.852C59.6404 44.8773 59.9824 44.8647 60.2864 44.814C60.0837 44.7887 59.7417 44.738 59.2604 44.662C59.3364 44.6113 60.2104 44.5607 61.8824 44.51C61.3504 44.4847 60.5397 44.434 59.4504 44.358C59.5517 44.3327 59.7544 44.282 60.0584 44.206C59.9317 44.13 59.7417 44.1047 59.4884 44.13C59.995 44.13 60.375 44.1047 60.6284 44.054C60.223 43.8767 59.235 43.788 57.6644 43.788L59.5264 43.484C60.3877 43.56 61.1477 43.5727 61.8064 43.522C61.2744 43.4967 60.489 43.446 59.4504 43.37C59.7544 43.3953 60.0457 43.37 60.3244 43.294C60.1217 43.218 59.843 43.1927 59.4884 43.218C59.7164 43.1927 60.0077 43.142 60.3624 43.066C60.261 43.0153 60.109 42.99 59.9064 42.99C59.9824 42.99 60.033 42.914 60.0584 42.762C60.0077 42.7113 59.8557 42.686 59.6024 42.686C59.7544 42.5847 59.805 42.5087 59.7544 42.458C59.9064 42.4327 60.1724 42.382 60.5524 42.306C60.3244 42.23 60.0457 42.2047 59.7164 42.23C59.8177 42.2047 59.9697 42.1793 60.1724 42.154C60.4004 42.1287 60.565 42.1033 60.6664 42.078C60.4637 42.002 60.1597 41.9767 59.7544 42.002C59.9824 41.9767 60.337 41.9513 60.8184 41.926C61.2997 41.9007 61.6544 41.8753 61.8824 41.85C61.325 41.774 60.6664 41.7487 59.9064 41.774C60.3117 41.7487 60.9197 41.698 61.7304 41.622C61.2237 41.546 60.6284 41.5207 59.9444 41.546C60.1977 41.546 60.5904 41.4953 61.1224 41.394C60.9957 41.3687 60.4637 41.3433 59.5264 41.318C58.589 41.2927 58.057 41.2673 57.9304 41.242C59.653 41.2927 60.7677 41.2673 61.2744 41.166C61.021 41.1153 60.5777 41.09 59.9444 41.09C60.299 41.0647 60.8184 41.014 61.5024 40.938C61.3504 40.9127 61.097 40.8873 60.7424 40.862C60.413 40.8367 60.1724 40.8113 60.0204 40.786C60.1217 40.7607 60.641 40.6847 61.5784 40.558C61.249 40.482 60.7804 40.4567 60.1724 40.482C60.299 40.482 60.4004 40.4567 60.4764 40.406C60.451 40.3807 60.3497 40.3553 60.1724 40.33H60.4384C60.5397 40.2287 60.5397 40.178 60.4384 40.178C60.869 40.178 61.249 40.1527 61.5784 40.102C61.2997 40.0513 60.831 40.026 60.1724 40.026C60.3497 40.0007 60.6157 39.95 60.9704 39.874C60.8944 39.8233 60.6537 39.798 60.2484 39.798C60.223 39.798 60.4257 39.722 60.8564 39.57C60.8057 39.5193 60.679 39.494 60.4764 39.494C61.1097 39.494 61.591 39.4687 61.9204 39.418C61.6164 39.3673 61.1224 39.342 60.4384 39.342C60.337 39.342 59.7924 39.3167 58.8044 39.266C57.6897 39.19 57.183 39.1393 57.2844 39.114C57.8417 39.114 58.399 39.1013 58.9564 39.076C60.1977 39.1013 60.7297 39.114 60.5524 39.114C61.1857 39.114 61.6924 39.0887 62.0724 39.038C61.7684 38.9873 61.2617 38.962 60.5524 38.962C60.6284 38.962 60.7044 38.9367 60.7804 38.886C60.7297 38.8353 60.641 38.81 60.5144 38.81C60.5904 38.8353 60.717 38.81 60.8944 38.734L60.9324 38.658C60.831 38.6327 60.717 38.582 60.5904 38.506H65.2644C65.1124 38.3033 64.8337 38.202 64.4284 38.202C64.2764 38.202 63.871 38.24 63.2124 38.316C62.655 38.3667 62.2117 38.3793 61.8824 38.354C61.4264 38.3033 61.0084 38.278 60.6284 38.278C61.135 38.278 61.553 38.2527 61.8824 38.202C61.705 38.126 61.401 38.1007 60.9704 38.126C60.8944 38.126 60.9324 38.1007 61.0844 38.05C61.0337 37.9993 60.907 37.974 60.7044 37.974C61.4137 37.974 61.9584 37.9487 62.3384 37.898C61.933 37.8727 61.3757 37.822 60.6664 37.746C61.021 37.7207 61.5657 37.67 62.3004 37.594C61.971 37.518 61.5024 37.4927 60.8944 37.518C61.1984 37.518 61.6797 37.4927 62.3384 37.442C62.0344 37.3913 61.5657 37.366 60.9324 37.366C61.3377 37.366 61.9457 37.3407 62.7564 37.29C62.503 37.2647 62.0977 37.214 61.5404 37.138C61.6164 37.1633 61.743 37.138 61.9204 37.062C61.743 37.0113 60.3244 36.986 57.6644 36.986C59.1337 36.986 60.793 36.9607 62.6424 36.91C62.4144 36.8593 61.9077 36.834 61.1224 36.834C61.173 36.8087 61.2237 36.7453 61.2744 36.644C61.629 36.6693 61.9204 36.6567 62.1484 36.606C62.0217 36.5807 61.6797 36.568 61.1224 36.568C61.1477 36.4413 61.1097 36.378 61.0084 36.378C61.1857 36.378 61.401 36.3273 61.6544 36.226C61.553 36.1247 61.4517 36.074 61.3504 36.074C61.629 36.074 61.8697 36.0487 62.0724 35.998C61.8444 35.9727 61.5657 35.922 61.2364 35.846C61.439 35.846 61.5784 35.8207 61.6544 35.77C61.6037 35.7193 61.4517 35.7067 61.1984 35.732C61.249 35.504 61.249 35.39 61.1984 35.39C61.477 35.39 61.7177 35.3647 61.9204 35.314C60.755 35.1367 59.5517 34.9467 58.3104 34.744C58.9437 34.7947 59.577 34.858 60.2104 34.934C61.401 35.0607 62.0597 35.1113 62.1864 35.086C62.009 35.0353 61.6924 35.01 61.2364 35.01C61.591 34.934 61.9584 34.858 62.3384 34.782C62.2624 34.7313 62.009 34.706 61.5784 34.706C61.781 34.706 62.0724 34.6807 62.4524 34.63C62.3764 34.5287 62.237 34.478 62.0344 34.478L62.1104 34.402C62.009 34.3513 61.8444 34.326 61.6164 34.326C61.7684 34.326 61.8824 34.3007 61.9584 34.25C61.9077 34.1993 61.7937 34.174 61.6164 34.174C62.0217 34.1487 62.655 34.098 63.5164 34.022C63.0604 33.946 62.503 33.9207 61.8444 33.946C62.579 33.9713 63.2124 33.946 63.7444 33.87C63.567 33.8447 62.8577 33.8193 61.6164 33.794C60.4004 33.7433 59.7037 33.7053 59.5264 33.68C60.4384 33.6547 61.4264 33.6167 62.4904 33.566C62.3637 33.5153 62.1737 33.49 61.9204 33.49L63.7064 33.262C63.225 33.186 62.655 33.1607 61.9964 33.186C62.047 33.186 62.2877 33.1353 62.7184 33.034C62.6677 32.9833 62.541 32.958 62.3384 32.958C63.3517 32.958 64.1497 32.9327 64.7324 32.882C64.3777 32.8313 63.7824 32.806 62.9464 32.806C63.301 32.8313 63.6557 32.806 64.0104 32.73C63.7064 32.6793 63.1744 32.654 62.4144 32.654L64.8084 32.426C64.631 32.4007 63.7697 32.3627 62.2244 32.312C60.7044 32.2613 59.843 32.2233 59.6404 32.198C59.7164 32.2233 60.3117 32.236 61.4264 32.236C62.5664 32.236 63.1744 32.2233 63.2504 32.198C63.149 32.0967 63.0477 32.046 62.9464 32.046C62.997 32.046 63.073 31.97 63.1744 31.818C63.4277 31.7673 64.0104 31.6913 64.9224 31.59C64.6944 31.514 64.441 31.4887 64.1624 31.514C64.4157 31.5393 64.669 31.514 64.9224 31.438C64.7197 31.3367 64.5424 31.286 64.3904 31.286C64.6437 31.3113 64.9097 31.286 65.1884 31.21C64.9604 31.1847 64.6564 31.134 64.2764 31.058C64.3017 31.0327 64.3397 30.9693 64.3904 30.868C64.669 30.8933 64.859 30.8807 64.9604 30.83C64.9097 30.7793 64.821 30.754 64.6944 30.754C65.277 30.7033 66.189 30.602 67.4304 30.45C66.2397 30.298 64.2637 30.26 61.5024 30.336C61.2237 30.412 61.0717 30.4627 61.0464 30.488C61.0717 30.488 61.1097 30.488 61.1604 30.488C60.8564 30.488 61.7557 30.4373 63.8584 30.336C65.7077 30.2347 67.4557 30.222 69.1024 30.298C69.1784 30.2727 68.165 30.222 66.0624 30.146C66.417 30.1207 66.9364 30.07 67.6204 29.994C67.5444 29.9687 67.3924 29.918 67.1644 29.842C67.0884 29.842 67.3164 29.8293 67.8484 29.804C68.5324 29.7533 69.5584 29.7153 70.9264 29.69C70.6984 29.6647 70.1157 29.6267 69.1784 29.576H72.0284C72.079 29.576 72.4464 29.6773 73.1304 29.88C75.4357 30.488 76.5884 31.8053 76.5884 33.832C76.5884 34.1107 76.563 34.402 76.5124 34.706L74.1944 45.498ZM72.8644 39.38H70.4704C70.5464 39.1773 70.6477 38.962 70.7744 38.734H71.9524C71.623 38.7847 71.1924 38.7213 70.6604 38.544C70.6857 38.5187 70.749 38.4553 70.8504 38.354H71.4204C71.243 38.354 71.015 38.3033 70.7364 38.202C70.8884 38.126 71.0404 38.088 71.1924 38.088C70.9644 38.088 70.825 38.0753 70.7744 38.05C70.8504 37.9993 70.8377 37.9233 70.7364 37.822C70.939 37.746 71.167 37.708 71.4204 37.708C71.1924 37.7333 71.0024 37.708 70.8504 37.632C70.8504 37.6067 70.8884 37.5687 70.9644 37.518C71.0404 37.4673 71.0784 37.4293 71.0784 37.404C70.9264 37.404 70.8377 37.3913 70.8124 37.366C71.1164 37.29 71.3824 37.252 71.6104 37.252C71.5597 37.252 71.547 37.2267 71.5724 37.176C71.5977 37.1253 71.6484 37.0747 71.7244 37.024C71.395 37.024 71.1544 36.9987 71.0024 36.948C71.1797 36.8973 71.4077 36.8847 71.6864 36.91C71.1037 36.8593 70.4577 36.796 69.7484 36.72C69.8497 36.6693 70.4577 36.644 71.5724 36.644C71.4964 36.644 71.3317 36.5933 71.0784 36.492C71.281 36.4413 71.4457 36.4287 71.5724 36.454C71.3444 36.378 71.319 36.302 71.4964 36.226C71.243 36.2513 71.1037 36.2387 71.0784 36.188C71.1037 36.1373 71.167 36.0487 71.2684 35.922H71.8004C71.5977 35.922 71.4457 35.884 71.3444 35.808C71.5977 35.7573 71.8257 35.732 72.0284 35.732C71.7497 35.732 71.4964 35.7067 71.2684 35.656L71.3064 35.466C71.6357 35.39 71.927 35.3647 72.1804 35.39C71.9524 35.3393 71.623 35.276 71.1924 35.2C71.4204 35.1493 71.737 35.124 72.1424 35.124C71.813 35.1493 71.5344 35.124 71.3064 35.048C71.357 35.0227 71.4584 35.01 71.6104 35.01C71.509 34.9847 71.4204 34.9087 71.3444 34.782C71.2937 34.63 71.2304 34.5413 71.1544 34.516C71.4077 34.4147 71.5977 34.364 71.7244 34.364L70.8124 34.326C70.4577 34.326 70.141 34.364 69.8624 34.44C69.7864 34.4653 69.7104 34.516 69.6344 34.592C69.305 35.124 69.1277 35.466 69.1024 35.618L66.6324 47.284C66.4297 48.2213 66.6577 48.69 67.3164 48.69C67.3164 48.69 67.7724 48.6647 68.6844 48.614C69.5964 48.538 70.2677 48.5 70.6984 48.5C70.293 48.5 69.7864 48.4873 69.1784 48.462C69.1277 48.4367 69.115 48.3987 69.1404 48.348C68.811 48.2973 68.545 48.2467 68.3424 48.196C68.4437 48.12 68.507 48.082 68.5324 48.082C68.6337 47.93 68.7984 47.8667 69.0264 47.892C69.4317 47.9173 69.6977 47.9173 69.8244 47.892C69.6724 47.892 69.2417 47.816 68.5324 47.664C68.9884 47.6133 69.533 47.588 70.1664 47.588C69.533 47.588 69.0644 47.5627 68.7604 47.512C69.343 47.36 69.6597 47.284 69.7104 47.284C69.305 47.284 69.0644 47.2713 68.9884 47.246C69.723 47.1193 70.1537 47.056 70.2804 47.056C69.8244 47.056 69.3684 46.98 68.9124 46.828C68.963 46.7773 69.077 46.752 69.2544 46.752C69.077 46.752 68.963 46.7393 68.9124 46.714C69.0897 46.6633 69.3304 46.6 69.6344 46.524C69.5077 46.4987 69.3937 46.4733 69.2924 46.448C69.2164 46.4227 69.1277 46.3847 69.0264 46.334V46.258C69.2544 46.182 69.4824 46.1567 69.7104 46.182C69.533 46.1313 69.2924 46.068 68.9884 45.992C69.115 45.84 69.229 45.764 69.3304 45.764C69.2037 45.764 69.191 45.726 69.2924 45.65C69.4444 45.65 69.6597 45.6373 69.9384 45.612C70.2424 45.5613 70.445 45.536 70.5464 45.536C70.0904 45.536 69.7357 45.5107 69.4824 45.46C69.5837 45.4093 69.7484 45.384 69.9764 45.384C69.647 45.384 69.4317 45.3587 69.3304 45.308C69.4064 45.2827 69.381 45.2193 69.2544 45.118C69.305 45.0927 69.2924 45.0293 69.2164 44.928C69.3684 44.8267 69.5077 44.776 69.6344 44.776C69.4824 44.776 69.3557 44.738 69.2544 44.662C69.4064 44.586 69.5964 44.548 69.8244 44.548C69.647 44.548 69.533 44.5227 69.4824 44.472C69.609 44.4213 69.8117 44.4087 70.0904 44.434C69.913 44.3833 69.6724 44.32 69.3684 44.244L69.4064 44.054C69.4824 43.978 69.5964 43.94 69.7484 43.94C69.647 43.94 69.571 43.9273 69.5204 43.902C69.723 43.8513 69.989 43.788 70.3184 43.712C69.989 43.7373 69.7737 43.712 69.6724 43.636C69.9764 43.5853 70.3564 43.5727 70.8124 43.598C70.787 43.5727 70.5464 43.5727 70.0904 43.598C69.8117 43.598 69.6344 43.522 69.5584 43.37C69.6597 43.294 69.8244 43.256 70.0524 43.256C69.9004 43.256 69.799 43.2433 69.7484 43.218C70.027 43.142 70.255 43.104 70.4324 43.104C70.255 43.104 70.103 43.0787 69.9764 43.028C70.255 42.9267 70.3944 42.876 70.3944 42.876C70.065 42.876 69.8497 42.8507 69.7484 42.8L69.8244 42.534H70.9644C70.635 42.5087 70.2297 42.4453 69.7484 42.344C70.3564 42.192 70.6604 42.116 70.6604 42.116C70.3817 42.1413 70.1284 42.116 69.9004 42.04C70.103 41.9893 70.331 41.964 70.5844 41.964C70.3564 41.9893 70.179 41.964 70.0524 41.888C70.4324 41.7867 70.6984 41.7487 70.8504 41.774C70.0397 41.698 69.1404 41.6093 68.1524 41.508L70.0904 41.242H71.4964C71.2684 41.242 70.901 41.204 70.3944 41.128C70.4704 41.0773 70.5337 41.052 70.5844 41.052C70.331 41.052 70.179 41.0393 70.1284 41.014C70.2804 40.9633 70.5717 40.9253 71.0024 40.9C70.673 40.9253 70.3944 40.9 70.1664 40.824C70.2424 40.824 70.3184 40.786 70.3944 40.71H71.3064C70.4957 40.6847 70.0904 40.672 70.0904 40.672L70.2044 40.254C70.3817 40.1273 70.5084 40.064 70.5844 40.064C70.407 40.064 70.331 40.026 70.3564 39.95L70.5464 39.798H71.6864C71.3824 39.798 70.9264 39.76 70.3184 39.684C70.4957 39.6333 70.635 39.608 70.7364 39.608C70.5844 39.608 70.483 39.5953 70.4324 39.57C70.787 39.4433 71.205 39.38 71.6864 39.38C72.3197 39.38 72.7124 39.38 72.8644 39.38Z" fill="white"/>
<path d="M98.1522 49.526H93.8582C94.2382 49.5513 94.6055 49.5133 94.9602 49.412C94.5042 49.336 93.8835 49.298 93.0982 49.298C93.7315 49.3233 94.2762 49.2853 94.7322 49.184C94.2002 49.108 93.4402 49.07 92.4522 49.07C92.7562 49.0953 93.0855 49.0573 93.4402 48.956C93.1109 48.9307 92.6295 48.8673 91.9962 48.766C93.5669 48.766 94.7449 48.728 95.5302 48.652C95.1249 48.6013 94.5169 48.5633 93.7062 48.538C92.9209 48.5127 92.3255 48.4747 91.9202 48.424C92.1482 48.424 92.4269 48.3607 92.7562 48.234C92.5535 48.1833 92.2622 48.0947 91.8822 47.968C92.0595 48.0187 92.2875 47.9933 92.5662 47.892C92.4649 47.892 92.1989 47.7653 91.7682 47.512C89.9695 49.2347 87.8289 50.096 85.3462 50.096C84.7129 50.096 83.9909 50.0453 83.1802 49.944C83.5602 49.9693 83.8389 49.944 84.0162 49.868C83.8389 49.8173 83.5475 49.7793 83.1422 49.754C82.7622 49.7033 82.4835 49.6527 82.3062 49.602C82.6862 49.6273 82.9649 49.602 83.1422 49.526C82.7369 49.4753 82.2049 49.3993 81.5462 49.298C82.0022 49.3233 82.4202 49.2853 82.8002 49.184C82.2429 49.0067 81.5969 48.918 80.8622 48.918C80.7862 48.5887 80.5835 48.424 80.2542 48.424C80.6849 48.4493 81.0902 48.4113 81.4702 48.31C81.1409 48.2593 80.5202 48.234 79.6082 48.234C79.8362 48.1833 81.2169 48.0693 83.7502 47.892C82.7115 47.8667 81.2169 47.7907 79.2662 47.664C79.6969 47.6133 80.4062 47.5373 81.3942 47.436C81.2929 47.3093 81.0649 47.246 80.7102 47.246C80.3809 47.2207 80.2162 47.208 80.2162 47.208C80.2162 47.1827 80.2289 47.1573 80.2542 47.132C80.1275 47.0813 79.8489 47.0433 79.4182 47.018C79.0889 47.018 78.9242 46.9167 78.9242 46.714C78.9242 46.486 78.6962 46.372 78.2402 46.372C78.5442 46.3973 78.8609 46.3593 79.1902 46.258C79.0635 46.2327 78.8482 46.1693 78.5442 46.068C78.2655 45.9413 78.0629 45.8653 77.9362 45.84C78.2655 45.7893 78.6962 45.7133 79.2282 45.612C78.8229 45.46 78.4302 45.384 78.0502 45.384C78.1262 45.4093 78.3162 45.3713 78.6202 45.27C78.5695 45.2193 78.4682 45.1813 78.3162 45.156C78.1895 45.1307 78.1262 45.0927 78.1262 45.042C78.1262 44.9913 78.1515 44.8773 78.2022 44.7C78.1769 44.5987 78.1009 44.5353 77.9742 44.51C77.8475 44.4847 77.7842 44.434 77.7842 44.358C77.7842 44.3073 77.8222 44.1933 77.8982 44.016C77.9235 43.9653 77.8222 43.8387 77.5942 43.636L81.1282 43.56C80.3682 43.5093 79.3042 43.4333 77.9362 43.332C78.3415 43.3573 78.6709 43.3193 78.9242 43.218C78.8989 43.1927 78.6962 43.142 78.3162 43.066C78.0882 42.99 77.9615 42.838 77.9362 42.61C77.9615 42.458 77.9742 42.2553 77.9742 42.002C78.1515 42.0273 78.3795 42.002 78.6582 41.926C78.4809 41.7993 78.2655 41.736 78.0122 41.736C78.1642 41.6093 78.2782 41.394 78.3542 41.09C78.6582 41.0393 79.0129 40.9507 79.4182 40.824C78.9369 40.672 78.5695 40.596 78.3162 40.596C78.5189 40.596 79.0002 40.5327 79.7602 40.406C79.5069 40.3553 79.1269 40.2793 78.6202 40.178C78.9749 40.2033 79.2535 40.1653 79.4562 40.064C79.2029 39.7853 79.0002 39.6713 78.8482 39.722C79.4309 39.722 80.3429 39.6967 81.5842 39.646C80.9002 39.5953 79.8742 39.5193 78.5062 39.418C78.9115 39.4433 79.2282 39.4053 79.4562 39.304C79.3042 39.2533 78.9495 39.228 78.3922 39.228C78.7215 39.1773 79.2409 39.0887 79.9502 38.962C79.6715 38.8353 79.2029 38.772 78.5442 38.772C79.4055 38.772 80.0769 38.734 80.5582 38.658C80.3809 38.6327 80.0895 38.6073 79.6842 38.582C79.3042 38.5313 79.0255 38.4807 78.8482 38.43C79.1269 38.43 79.4562 38.3667 79.8362 38.24C79.6589 38.164 79.3295 38.126 78.8482 38.126C79.1015 38.126 79.4055 38.05 79.7602 37.898C79.6082 37.8473 79.3422 37.822 78.9622 37.822C79.2155 37.7713 79.5955 37.6827 80.1022 37.556C79.7982 37.4547 79.4055 37.4293 78.9242 37.48C79.2282 37.48 79.5069 37.442 79.7602 37.366C79.5575 37.2647 79.3295 37.2267 79.0762 37.252C79.1015 37.2267 79.1142 37.214 79.1142 37.214C78.8609 37.138 78.7342 37.0493 78.7342 36.948C78.7342 36.872 78.8735 36.7707 79.1522 36.644C78.8482 36.5173 78.0249 36.378 76.6822 36.226C77.0875 36.1247 77.8475 35.9473 78.9622 35.694C79.1395 35.7193 79.2915 35.732 79.4182 35.732C79.6715 35.732 80.0009 35.694 80.4062 35.618C80.3302 35.542 80.1529 35.504 79.8742 35.504C80.1275 35.504 80.3555 35.466 80.5582 35.39C80.5075 35.314 80.2922 35.2887 79.9122 35.314C80.4189 35.2633 81.2042 35.1873 82.2682 35.086C81.4829 34.9847 80.5835 34.9467 79.5702 34.972C79.8742 34.9973 80.2035 34.9593 80.5582 34.858C80.3049 34.782 79.9502 34.744 79.4942 34.744C79.7982 34.7693 80.0769 34.7313 80.3302 34.63C80.1782 34.5793 79.9629 34.516 79.6842 34.44C80.0135 34.3893 80.5329 34.3133 81.2422 34.212C80.9129 34.1107 80.5582 34.0727 80.1782 34.098C81.4449 34.098 82.3949 34.06 83.0282 33.984C82.3189 33.908 81.2675 33.87 79.8742 33.87C80.4569 33.87 80.9888 33.8067 81.4702 33.68C80.2795 33.5787 78.8735 33.414 77.2522 33.186C79.4309 33.2367 81.3435 33.186 82.9902 33.034C82.6609 32.9833 82.1795 32.9453 81.5462 32.92C80.9382 32.8693 80.4822 32.8313 80.1782 32.806C80.4569 32.806 80.7862 32.73 81.1662 32.578C80.8115 32.426 80.3935 32.35 79.9122 32.35C81.2295 32.35 82.3062 32.2867 83.1422 32.16C82.5595 32.084 81.6222 32.046 80.3302 32.046C80.5329 32.0207 80.9002 31.9827 81.4322 31.932C81.9895 31.8813 82.3569 31.8433 82.5342 31.818C81.8502 31.7167 81.0522 31.6787 80.1402 31.704C80.5202 31.7293 80.9762 31.6913 81.5082 31.59C81.2042 31.4887 80.8495 31.4507 80.4442 31.476C81.1789 31.476 81.7742 31.4507 82.2302 31.4C81.9009 31.324 81.3055 31.286 80.4442 31.286C80.8495 31.286 81.1282 31.1593 81.2802 30.906C81.9389 30.906 82.3822 30.8807 82.6102 30.83C82.2555 30.7287 81.6349 30.7033 80.7482 30.754C80.9762 30.678 81.8122 30.564 83.2562 30.412C83.0029 30.3107 81.8755 30.2853 79.8742 30.336C77.9995 30.412 76.9989 30.3487 76.8722 30.146C76.9229 30.07 77.6322 30.0067 79.0002 29.956C80.2922 29.9053 80.9129 29.842 80.8622 29.766C81.1409 29.8167 81.4069 29.7407 81.6602 29.538C81.4575 29.4367 81.1282 29.3353 80.6722 29.234C80.6975 29.0313 80.8242 28.7653 81.0522 28.436C81.0775 28.36 81.3815 28.322 81.9642 28.322C82.3189 28.322 82.6609 28.322 82.9902 28.322C83.1675 28.2967 83.3195 28.2713 83.4462 28.246C82.5089 28.094 81.6855 28.0307 80.9762 28.056C81.1535 27.9547 81.6602 27.828 82.4962 27.676C82.3949 27.5747 82.1922 27.524 81.8882 27.524C81.4575 27.4987 81.2169 27.486 81.1662 27.486C82.3315 27.5113 83.3829 27.4733 84.3202 27.372C83.7375 27.3213 82.8509 27.2073 81.6602 27.03C82.1669 27.0553 82.6735 27.03 83.1802 26.954C82.8762 26.9033 81.7235 26.8527 79.7222 26.802C79.8489 26.802 80.3302 26.8147 81.1662 26.84C81.7995 26.7893 82.8255 26.6373 84.2442 26.384C82.7495 26.1813 81.9135 26.08 81.7362 26.08C82.1415 26.08 82.9775 25.9913 84.2442 25.814C84.0922 25.662 83.7249 25.5987 83.1422 25.624C82.2302 25.624 81.7489 25.624 81.6982 25.624C82.0529 25.5987 82.6229 25.5733 83.4082 25.548C84.1935 25.4973 84.7635 25.4593 85.1182 25.434C84.7635 25.3833 84.2062 25.3453 83.4462 25.32C82.6862 25.2693 82.1289 25.2313 81.7742 25.206C82.3315 25.1553 83.1675 25.0793 84.2822 24.978C83.8769 24.902 83.1549 24.864 82.1162 24.864C82.6229 24.8893 83.1295 24.8513 83.6362 24.75C81.3309 24.5727 78.9495 24.3447 76.4922 24.066C78.9242 24.0153 81.5589 23.9267 84.3962 23.8C84.1682 23.6987 83.6742 23.6607 82.9142 23.686C83.1422 23.6607 83.5095 23.6227 84.0162 23.572C84.5229 23.5213 84.9029 23.4833 85.1562 23.458C84.7762 23.3567 84.1935 23.3187 83.4082 23.344C83.8895 23.3693 84.3962 23.3313 84.9282 23.23C84.6242 23.154 84.1935 23.0527 83.6362 22.926C84.3202 22.8753 85.3715 22.7993 86.7902 22.698C85.7515 22.546 85.0042 22.47 84.5482 22.47C84.4469 22.47 83.7755 22.4067 82.5342 22.28C81.0649 22.128 80.3809 22.0267 80.4822 21.976C80.4822 21.9253 81.2295 21.9507 82.7242 22.052C84.3455 22.128 85.0169 22.166 84.7382 22.166C85.0422 22.0393 85.3335 21.9887 85.6122 22.014C86.0429 21.634 86.6382 21.444 87.3982 21.444C87.5502 21.444 87.7909 21.4567 88.1202 21.482C88.4749 21.5073 88.7409 21.52 88.9182 21.52C89.2982 21.52 89.6275 21.482 89.9062 21.406C89.7035 21.33 88.5889 21.216 86.5622 21.064C84.7382 20.9373 83.8515 20.798 83.9022 20.646C85.8529 20.722 88.1835 20.722 90.8942 20.646C90.2862 20.494 89.7795 20.418 89.3742 20.418C91.0462 20.418 92.3002 20.38 93.1362 20.304C92.3002 20.228 91.2235 20.19 89.9062 20.19C91.1222 20.0633 92.2749 20 93.3642 20C95.9482 20 98.0382 20.3927 99.6342 21.178C101.788 22.242 102.864 23.9267 102.864 26.232C102.864 27.2453 102.598 28.9047 102.066 31.21H92.8702C92.8955 31.134 92.8702 31.0453 92.7942 30.944C92.7182 30.8427 92.6929 30.754 92.7182 30.678C93.0729 30.678 93.3895 30.6273 93.6682 30.526C93.3389 30.374 93.0602 30.298 92.8322 30.298C93.5922 30.298 94.1749 30.26 94.5802 30.184C94.3015 30.1587 93.9469 30.0827 93.5162 29.956C93.9469 29.9813 94.2762 29.956 94.5042 29.88C94.4029 29.804 94.0862 29.766 93.5542 29.766C93.2755 29.7407 93.1109 29.6773 93.0602 29.576C93.1869 29.4493 93.3009 29.3733 93.4022 29.348C93.5035 29.3227 93.5415 29.2593 93.5162 29.158C93.5922 29.082 94.3142 29.0313 95.6822 29.006C96.1129 28.9807 96.4169 28.9427 96.5942 28.892C96.5689 28.8667 95.7962 28.8287 94.2762 28.778C93.8962 28.778 93.6935 28.7273 93.6682 28.626C93.6429 28.246 93.5542 27.9673 93.4022 27.79C94.1369 27.8153 94.7069 27.79 95.1122 27.714C94.7575 27.638 94.2382 27.6 93.5542 27.6C93.5035 27.6 94.4535 27.486 96.4042 27.258C95.9735 27.2327 95.3909 27.1947 94.6562 27.144C94.6309 27.1187 94.2635 26.9667 93.5542 26.688C93.6809 26.7387 93.7822 26.764 93.8582 26.764C93.9849 26.764 94.1875 26.7007 94.4662 26.574C94.7449 26.4473 95.0109 26.346 95.2642 26.27C94.9602 26.2447 94.4915 26.1307 93.8582 25.928C95.0489 25.9787 95.9989 25.9533 96.7082 25.852C96.1762 25.776 95.4162 25.738 94.4282 25.738C95.0615 25.7633 95.7075 25.7253 96.3662 25.624C95.9862 25.5987 95.4795 25.548 94.8462 25.472C94.8209 25.2947 94.6309 25.206 94.2762 25.206C93.9975 25.206 93.7189 25.206 93.4402 25.206C93.7695 25.1553 94.2382 25.0793 94.8462 24.978C94.0355 24.8007 93.3642 24.712 92.8322 24.712C92.0469 24.712 91.4769 24.9147 91.1222 25.32C90.7675 25.7 90.5015 26.346 90.3242 27.258L87.0182 42.8C86.8915 43.3827 86.8282 43.8133 86.8282 44.092C86.8282 44.928 87.3855 45.346 88.5002 45.346C88.9562 45.346 89.5135 45.2827 90.1722 45.156C89.9949 45.08 89.7669 45.0547 89.4882 45.08C90.0202 45.08 90.4382 45.0293 90.7422 44.928C90.6915 44.852 90.5269 44.8267 90.2482 44.852C90.4255 44.852 90.6029 44.814 90.7802 44.738C90.6282 44.662 90.3242 44.624 89.8682 44.624C90.1469 44.6493 90.3749 44.6113 90.5522 44.51C90.4002 44.4593 90.1469 44.434 89.7922 44.434L90.4762 44.244C90.6535 44.2187 90.8942 44.13 91.1982 43.978C91.4262 44.0287 91.8062 43.9907 92.3382 43.864C91.9075 43.8387 91.3249 43.7627 90.5902 43.636C90.7422 43.56 91.5909 43.4967 93.1362 43.446C93.5922 43.446 93.9469 43.408 94.2002 43.332C93.3642 43.2813 92.1229 43.1673 90.4762 42.99C90.8562 43.0153 91.2362 42.9773 91.6162 42.876C91.3882 42.876 91.0842 42.7747 90.7042 42.572C90.4509 42.5467 90.4382 42.5213 90.6662 42.496C91.0462 42.42 91.2615 42.3693 91.3122 42.344C91.0842 42.2933 90.8435 42.1793 90.5902 42.002C91.0209 42.0273 91.3375 42.002 91.5402 41.926C91.3629 41.8753 91.1349 41.7867 90.8562 41.66C91.1349 41.5333 91.2995 41.5207 91.3502 41.622C91.3249 41.5713 91.2995 41.5207 91.2742 41.47C90.9702 41.47 90.9322 41.4573 91.1602 41.432C91.5149 41.356 91.7302 41.3053 91.8062 41.28C91.6542 41.204 91.2995 41.166 90.7422 41.166C90.8942 41.1407 91.1222 41.1027 91.4262 41.052C91.7555 41.0013 91.9962 40.9633 92.1482 40.938C91.8949 40.9127 91.4769 40.8493 90.8942 40.748C91.0209 40.4693 91.2235 40.3047 91.5022 40.254C91.8062 40.2033 92.1229 40.14 92.4522 40.064C92.3509 40.0387 92.1355 40.0133 91.8062 39.988C91.5022 39.9373 91.2869 39.8867 91.1602 39.836C91.3122 39.836 91.4895 39.798 91.6922 39.722C91.9202 39.6207 92.0849 39.5573 92.1862 39.532C92.0089 39.456 91.8062 39.342 91.5782 39.19C92.6422 39.19 93.3642 39.152 93.7442 39.076C92.7309 38.7213 91.9962 38.582 91.5402 38.658C91.7682 38.658 92.2369 38.582 92.9462 38.43C92.4649 38.4047 91.3502 38.392 89.6022 38.392C89.6782 38.24 89.7669 38.0247 89.8682 37.746C90.1469 37.7713 90.5522 37.746 91.0842 37.67C90.8309 37.6447 90.5775 37.6193 90.3242 37.594C89.9949 37.5433 89.8175 37.4547 89.7922 37.328C90.8309 37.3533 91.6035 37.328 92.1102 37.252C91.6289 37.2267 90.8815 37.1633 89.8682 37.062C89.9695 36.9353 90.2609 36.8213 90.7422 36.72C90.6155 36.644 90.3495 36.606 89.9442 36.606C90.1215 36.454 90.3369 36.302 90.5902 36.15C90.5395 36.074 90.3242 36.0487 89.9442 36.074C90.0709 36.0487 90.1975 36.0233 90.3242 35.998C90.3495 35.9727 90.4255 35.8207 90.5522 35.542C90.5015 35.4913 90.4762 35.466 90.4762 35.466C90.7549 35.4407 91.0842 35.39 91.4642 35.314C91.2109 35.238 90.8815 35.1493 90.4762 35.048C90.4762 35.0987 90.4129 34.9213 90.2862 34.516C90.6662 34.516 90.9322 34.4907 91.0842 34.44C90.9575 34.3893 90.7802 34.3007 90.5522 34.174L101.458 34.022L98.1522 49.526Z" fill="white"/>
<path d="M117.687 45.498C117.585 45.7767 117.433 46.182 117.231 46.714C116.901 47.626 116.091 48.462 114.799 49.222C113.532 49.982 112.354 50.4127 111.265 50.514C111.239 50.514 111.138 50.5267 110.961 50.552C110.783 50.6027 110.657 50.628 110.581 50.628H108.719L108.757 50.514C108.326 50.4887 107.718 50.438 106.933 50.362C106.831 50.3367 106.641 50.324 106.363 50.324L107.693 50.248C107.718 50.248 107.781 50.21 107.883 50.134C107.173 50.0833 106.059 49.9567 104.539 49.754H105.299C105.349 49.7287 105.425 49.678 105.527 49.602C105.273 49.5513 104.893 49.526 104.387 49.526C104.564 49.5007 104.805 49.4753 105.109 49.45C105.438 49.4247 105.691 49.3993 105.869 49.374C105.666 49.3487 105.362 49.3233 104.957 49.298C104.551 49.2727 104.26 49.2473 104.083 49.222C104.387 49.2473 104.678 49.222 104.957 49.146C104.653 49.1713 104.323 49.0827 103.969 48.88C104.121 48.9053 104.285 48.8927 104.463 48.842C104.336 48.7913 104.159 48.766 103.931 48.766C104.285 48.766 104.564 48.728 104.767 48.652C104.589 48.576 104.311 48.538 103.931 48.538C104.133 48.538 104.298 48.5127 104.425 48.462C104.247 48.4113 103.943 48.386 103.513 48.386C103.766 48.3607 104.146 48.3353 104.653 48.31C105.159 48.2847 105.539 48.2593 105.793 48.234C105.489 48.2087 104.501 48.1327 102.829 48.006C103.31 47.9553 103.994 47.854 104.881 47.702C104.729 47.5753 104.437 47.5247 104.007 47.55C103.323 47.55 102.955 47.55 102.905 47.55C103.234 47.5247 103.715 47.4993 104.349 47.474C105.007 47.4487 105.489 47.4233 105.793 47.398C105.717 47.398 104.944 47.3853 103.475 47.36C103.399 47.36 103.31 47.3347 103.209 47.284C103.107 47.208 103.019 47.17 102.943 47.17C103.931 47.17 104.678 47.1447 105.185 47.094C104.83 47.0433 104.273 47.018 103.513 47.018C103.766 47.0433 104.019 47.018 104.273 46.942C103.918 46.8913 103.361 46.866 102.601 46.866C102.879 46.8407 103.335 46.79 103.969 46.714C103.867 46.6887 103.373 46.6127 102.487 46.486C102.968 46.486 103.411 46.448 103.817 46.372V46.334C103.513 46.2833 103.183 46.258 102.829 46.258C102.955 46.258 103.145 46.2073 103.399 46.106C103.221 46.0553 102.955 45.9667 102.601 45.84H103.285C103.31 45.84 103.386 45.802 103.513 45.726C103.335 45.65 103.031 45.5613 102.601 45.46L102.753 44.852C103.133 44.8773 103.475 44.8647 103.779 44.814C103.576 44.7887 103.234 44.738 102.753 44.662C102.829 44.6113 103.703 44.5607 105.375 44.51C104.843 44.4847 104.032 44.434 102.943 44.358C103.044 44.3327 103.247 44.282 103.551 44.206C103.424 44.13 103.234 44.1047 102.981 44.13C103.487 44.13 103.867 44.1047 104.121 44.054C103.715 43.8767 102.727 43.788 101.157 43.788L103.019 43.484C103.88 43.56 104.64 43.5727 105.299 43.522C104.767 43.4967 103.981 43.446 102.943 43.37C103.247 43.3953 103.538 43.37 103.817 43.294C103.614 43.218 103.335 43.1927 102.981 43.218C103.209 43.1927 103.5 43.142 103.855 43.066C103.753 43.0153 103.601 42.99 103.399 42.99C103.475 42.99 103.525 42.914 103.551 42.762C103.5 42.7113 103.348 42.686 103.095 42.686C103.247 42.5847 103.297 42.5087 103.247 42.458C103.399 42.4327 103.665 42.382 104.045 42.306C103.817 42.23 103.538 42.2047 103.209 42.23C103.31 42.2047 103.462 42.1793 103.665 42.154C103.893 42.1287 104.057 42.1033 104.159 42.078C103.956 42.002 103.652 41.9767 103.247 42.002C103.475 41.9767 103.829 41.9513 104.311 41.926C104.792 41.9007 105.147 41.8753 105.375 41.85C104.817 41.774 104.159 41.7487 103.399 41.774C103.804 41.7487 104.412 41.698 105.223 41.622C104.716 41.546 104.121 41.5207 103.437 41.546C103.69 41.546 104.083 41.4953 104.615 41.394C104.488 41.3687 103.956 41.3433 103.019 41.318C102.081 41.2927 101.549 41.2673 101.423 41.242C103.145 41.2927 104.26 41.2673 104.767 41.166C104.513 41.1153 104.07 41.09 103.437 41.09C103.791 41.0647 104.311 41.014 104.995 40.938C104.843 40.9127 104.589 40.8873 104.235 40.862C103.905 40.8367 103.665 40.8113 103.513 40.786C103.614 40.7607 104.133 40.6847 105.071 40.558C104.741 40.482 104.273 40.4567 103.665 40.482C103.791 40.482 103.893 40.4567 103.969 40.406C103.943 40.3807 103.842 40.3553 103.665 40.33H103.931C104.032 40.2287 104.032 40.178 103.931 40.178C104.361 40.178 104.741 40.1527 105.071 40.102C104.792 40.0513 104.323 40.026 103.665 40.026C103.842 40.0007 104.108 39.95 104.463 39.874C104.387 39.8233 104.146 39.798 103.741 39.798C103.715 39.798 103.918 39.722 104.349 39.57C104.298 39.5193 104.171 39.494 103.969 39.494C104.602 39.494 105.083 39.4687 105.413 39.418C105.109 39.3673 104.615 39.342 103.931 39.342C103.829 39.342 103.285 39.3167 102.297 39.266C101.182 39.19 100.675 39.1393 100.777 39.114C101.334 39.114 101.891 39.1013 102.449 39.076C103.69 39.1013 104.222 39.114 104.045 39.114C104.678 39.114 105.185 39.0887 105.565 39.038C105.261 38.9873 104.754 38.962 104.045 38.962C104.121 38.962 104.197 38.9367 104.273 38.886C104.222 38.8353 104.133 38.81 104.007 38.81C104.083 38.8353 104.209 38.81 104.387 38.734L104.425 38.658C104.323 38.6327 104.209 38.582 104.083 38.506H108.757C108.605 38.3033 108.326 38.202 107.921 38.202C107.769 38.202 107.363 38.24 106.705 38.316C106.147 38.3667 105.704 38.3793 105.375 38.354C104.919 38.3033 104.501 38.278 104.121 38.278C104.627 38.278 105.045 38.2527 105.375 38.202C105.197 38.126 104.893 38.1007 104.463 38.126C104.387 38.126 104.425 38.1007 104.577 38.05C104.526 37.9993 104.399 37.974 104.197 37.974C104.906 37.974 105.451 37.9487 105.831 37.898C105.425 37.8727 104.868 37.822 104.159 37.746C104.513 37.7207 105.058 37.67 105.793 37.594C105.463 37.518 104.995 37.4927 104.387 37.518C104.691 37.518 105.172 37.4927 105.831 37.442C105.527 37.3913 105.058 37.366 104.425 37.366C104.83 37.366 105.438 37.3407 106.249 37.29C105.995 37.2647 105.59 37.214 105.033 37.138C105.109 37.1633 105.235 37.138 105.413 37.062C105.235 37.0113 103.817 36.986 101.157 36.986C102.626 36.986 104.285 36.9607 106.135 36.91C105.907 36.8593 105.4 36.834 104.615 36.834C104.665 36.8087 104.716 36.7453 104.767 36.644C105.121 36.6693 105.413 36.6567 105.641 36.606C105.514 36.5807 105.172 36.568 104.615 36.568C104.64 36.4413 104.602 36.378 104.501 36.378C104.678 36.378 104.893 36.3273 105.147 36.226C105.045 36.1247 104.944 36.074 104.843 36.074C105.121 36.074 105.362 36.0487 105.565 35.998C105.337 35.9727 105.058 35.922 104.729 35.846C104.931 35.846 105.071 35.8207 105.147 35.77C105.096 35.7193 104.944 35.7067 104.691 35.732C104.741 35.504 104.741 35.39 104.691 35.39C104.969 35.39 105.21 35.3647 105.413 35.314C104.247 35.1367 103.044 34.9467 101.803 34.744C102.436 34.7947 103.069 34.858 103.703 34.934C104.893 35.0607 105.552 35.1113 105.679 35.086C105.501 35.0353 105.185 35.01 104.729 35.01C105.083 34.934 105.451 34.858 105.831 34.782C105.755 34.7313 105.501 34.706 105.071 34.706C105.273 34.706 105.565 34.6807 105.945 34.63C105.869 34.5287 105.729 34.478 105.527 34.478L105.603 34.402C105.501 34.3513 105.337 34.326 105.109 34.326C105.261 34.326 105.375 34.3007 105.451 34.25C105.4 34.1993 105.286 34.174 105.109 34.174C105.514 34.1487 106.147 34.098 107.009 34.022C106.553 33.946 105.995 33.9207 105.337 33.946C106.071 33.9713 106.705 33.946 107.237 33.87C107.059 33.8447 106.35 33.8193 105.109 33.794C103.893 33.7433 103.196 33.7053 103.019 33.68C103.931 33.6547 104.919 33.6167 105.983 33.566C105.856 33.5153 105.666 33.49 105.413 33.49L107.199 33.262C106.717 33.186 106.147 33.1607 105.489 33.186C105.539 33.186 105.78 33.1353 106.211 33.034C106.16 32.9833 106.033 32.958 105.831 32.958C106.844 32.958 107.642 32.9327 108.225 32.882C107.87 32.8313 107.275 32.806 106.439 32.806C106.793 32.8313 107.148 32.806 107.503 32.73C107.199 32.6793 106.667 32.654 105.907 32.654L108.301 32.426C108.123 32.4007 107.262 32.3627 105.717 32.312C104.197 32.2613 103.335 32.2233 103.133 32.198C103.209 32.2233 103.804 32.236 104.919 32.236C106.059 32.236 106.667 32.2233 106.743 32.198C106.641 32.0967 106.54 32.046 106.439 32.046C106.489 32.046 106.565 31.97 106.667 31.818C106.92 31.7673 107.503 31.6913 108.415 31.59C108.187 31.514 107.933 31.4887 107.655 31.514C107.908 31.5393 108.161 31.514 108.415 31.438C108.212 31.3367 108.035 31.286 107.883 31.286C108.136 31.3113 108.402 31.286 108.681 31.21C108.453 31.1847 108.149 31.134 107.769 31.058C107.794 31.0327 107.832 30.9693 107.883 30.868C108.161 30.8933 108.351 30.8807 108.453 30.83C108.402 30.7793 108.313 30.754 108.187 30.754C108.769 30.7033 109.681 30.602 110.923 30.45C109.732 30.298 107.756 30.26 104.995 30.336C104.716 30.412 104.564 30.4627 104.539 30.488C104.564 30.488 104.602 30.488 104.653 30.488C104.349 30.488 105.248 30.4373 107.351 30.336C109.2 30.2347 110.948 30.222 112.595 30.298C112.671 30.2727 111.657 30.222 109.555 30.146C109.909 30.1207 110.429 30.07 111.113 29.994C111.037 29.9687 110.885 29.918 110.657 29.842C110.581 29.842 110.809 29.8293 111.341 29.804C112.025 29.7533 113.051 29.7153 114.419 29.69C114.191 29.6647 113.608 29.6267 112.671 29.576H115.521C115.571 29.576 115.939 29.6773 116.623 29.88C118.928 30.488 120.081 31.8053 120.081 33.832C120.081 34.1107 120.055 34.402 120.005 34.706L117.687 45.498ZM116.357 39.38H113.963C114.039 39.1773 114.14 38.962 114.267 38.734H115.445C115.115 38.7847 114.685 38.7213 114.153 38.544C114.178 38.5187 114.241 38.4553 114.343 38.354H114.913C114.735 38.354 114.507 38.3033 114.229 38.202C114.381 38.126 114.533 38.088 114.685 38.088C114.457 38.088 114.317 38.0753 114.267 38.05C114.343 37.9993 114.33 37.9233 114.229 37.822C114.431 37.746 114.659 37.708 114.913 37.708C114.685 37.7333 114.495 37.708 114.343 37.632C114.343 37.6067 114.381 37.5687 114.457 37.518C114.533 37.4673 114.571 37.4293 114.571 37.404C114.419 37.404 114.33 37.3913 114.305 37.366C114.609 37.29 114.875 37.252 115.103 37.252C115.052 37.252 115.039 37.2267 115.065 37.176C115.09 37.1253 115.141 37.0747 115.217 37.024C114.887 37.024 114.647 36.9987 114.495 36.948C114.672 36.8973 114.9 36.8847 115.179 36.91C114.596 36.8593 113.95 36.796 113.241 36.72C113.342 36.6693 113.95 36.644 115.065 36.644C114.989 36.644 114.824 36.5933 114.571 36.492C114.773 36.4413 114.938 36.4287 115.065 36.454C114.837 36.378 114.811 36.302 114.989 36.226C114.735 36.2513 114.596 36.2387 114.571 36.188C114.596 36.1373 114.659 36.0487 114.761 35.922H115.293C115.09 35.922 114.938 35.884 114.837 35.808C115.09 35.7573 115.318 35.732 115.521 35.732C115.242 35.732 114.989 35.7067 114.761 35.656L114.799 35.466C115.128 35.39 115.419 35.3647 115.673 35.39C115.445 35.3393 115.115 35.276 114.685 35.2C114.913 35.1493 115.229 35.124 115.635 35.124C115.305 35.1493 115.027 35.124 114.799 35.048C114.849 35.0227 114.951 35.01 115.103 35.01C115.001 34.9847 114.913 34.9087 114.837 34.782C114.786 34.63 114.723 34.5413 114.647 34.516C114.9 34.4147 115.09 34.364 115.217 34.364L114.305 34.326C113.95 34.326 113.633 34.364 113.355 34.44C113.279 34.4653 113.203 34.516 113.127 34.592C112.797 35.124 112.62 35.466 112.595 35.618L110.125 47.284C109.922 48.2213 110.15 48.69 110.809 48.69C110.809 48.69 111.265 48.6647 112.177 48.614C113.089 48.538 113.76 48.5 114.191 48.5C113.785 48.5 113.279 48.4873 112.671 48.462C112.62 48.4367 112.607 48.3987 112.633 48.348C112.303 48.2973 112.037 48.2467 111.835 48.196C111.936 48.12 111.999 48.082 112.025 48.082C112.126 47.93 112.291 47.8667 112.519 47.892C112.924 47.9173 113.19 47.9173 113.317 47.892C113.165 47.892 112.734 47.816 112.025 47.664C112.481 47.6133 113.025 47.588 113.659 47.588C113.025 47.588 112.557 47.5627 112.253 47.512C112.835 47.36 113.152 47.284 113.203 47.284C112.797 47.284 112.557 47.2713 112.481 47.246C113.215 47.1193 113.646 47.056 113.773 47.056C113.317 47.056 112.861 46.98 112.405 46.828C112.455 46.7773 112.569 46.752 112.747 46.752C112.569 46.752 112.455 46.7393 112.405 46.714C112.582 46.6633 112.823 46.6 113.127 46.524C113 46.4987 112.886 46.4733 112.785 46.448C112.709 46.4227 112.62 46.3847 112.519 46.334V46.258C112.747 46.182 112.975 46.1567 113.203 46.182C113.025 46.1313 112.785 46.068 112.481 45.992C112.607 45.84 112.721 45.764 112.823 45.764C112.696 45.764 112.683 45.726 112.785 45.65C112.937 45.65 113.152 45.6373 113.431 45.612C113.735 45.5613 113.937 45.536 114.039 45.536C113.583 45.536 113.228 45.5107 112.975 45.46C113.076 45.4093 113.241 45.384 113.469 45.384C113.139 45.384 112.924 45.3587 112.823 45.308C112.899 45.2827 112.873 45.2193 112.747 45.118C112.797 45.0927 112.785 45.0293 112.709 44.928C112.861 44.8267 113 44.776 113.127 44.776C112.975 44.776 112.848 44.738 112.747 44.662C112.899 44.586 113.089 44.548 113.317 44.548C113.139 44.548 113.025 44.5227 112.975 44.472C113.101 44.4213 113.304 44.4087 113.583 44.434C113.405 44.3833 113.165 44.32 112.861 44.244L112.899 44.054C112.975 43.978 113.089 43.94 113.241 43.94C113.139 43.94 113.063 43.9273 113.013 43.902C113.215 43.8513 113.481 43.788 113.811 43.712C113.481 43.7373 113.266 43.712 113.165 43.636C113.469 43.5853 113.849 43.5727 114.305 43.598C114.279 43.5727 114.039 43.5727 113.583 43.598C113.304 43.598 113.127 43.522 113.051 43.37C113.152 43.294 113.317 43.256 113.545 43.256C113.393 43.256 113.291 43.2433 113.241 43.218C113.519 43.142 113.747 43.104 113.925 43.104C113.747 43.104 113.595 43.0787 113.469 43.028C113.747 42.9267 113.887 42.876 113.887 42.876C113.557 42.876 113.342 42.8507 113.241 42.8L113.317 42.534H114.457C114.127 42.5087 113.722 42.4453 113.241 42.344C113.849 42.192 114.153 42.116 114.153 42.116C113.874 42.1413 113.621 42.116 113.393 42.04C113.595 41.9893 113.823 41.964 114.077 41.964C113.849 41.9893 113.671 41.964 113.545 41.888C113.925 41.7867 114.191 41.7487 114.343 41.774C113.532 41.698 112.633 41.6093 111.645 41.508L113.583 41.242H114.989C114.761 41.242 114.393 41.204 113.887 41.128C113.963 41.0773 114.026 41.052 114.077 41.052C113.823 41.052 113.671 41.0393 113.621 41.014C113.773 40.9633 114.064 40.9253 114.495 40.9C114.165 40.9253 113.887 40.9 113.659 40.824C113.735 40.824 113.811 40.786 113.887 40.71H114.799C113.988 40.6847 113.583 40.672 113.583 40.672L113.697 40.254C113.874 40.1273 114.001 40.064 114.077 40.064C113.899 40.064 113.823 40.026 113.849 39.95L114.039 39.798H115.179C114.875 39.798 114.419 39.76 113.811 39.684C113.988 39.6333 114.127 39.608 114.229 39.608C114.077 39.608 113.975 39.5953 113.925 39.57C114.279 39.4433 114.697 39.38 115.179 39.38C115.812 39.38 116.205 39.38 116.357 39.38Z" fill="white"/>
<path d="M139.972 20.532H135.792L135.83 20.342H140.01L139.972 20.532ZM143.658 41.508C143.05 44.396 141.758 46.5493 139.782 47.968C137.578 49.5387 134.386 50.324 130.206 50.324C129.624 50.324 129.016 50.3113 128.382 50.286C129.522 50.3113 130.561 50.2733 131.498 50.172C131.397 50.172 130.523 50.1213 128.876 50.02C127.711 49.944 127.027 49.83 126.824 49.678C126.85 49.5513 126.128 49.3867 124.658 49.184C125.57 49.2093 126.356 49.1713 127.014 49.07C126.609 48.9687 126.014 48.8927 125.228 48.842C124.215 48.766 123.518 48.7027 123.138 48.652C124.456 48.6773 125.596 48.6393 126.558 48.538C126.204 48.4367 125.57 48.3733 124.658 48.348C123.746 48.3227 122.961 48.2467 122.302 48.12C123.062 48.12 123.86 48.006 124.696 47.778C124.114 47.7527 123.227 47.6387 122.036 47.436C122.796 47.4867 123.493 47.4613 124.126 47.36C123.544 47.3093 122.733 47.2333 121.694 47.132C122.15 47.1067 122.758 47.0307 123.518 46.904C123.113 46.8787 122.632 46.79 122.074 46.638C122.252 46.6127 122.34 46.5873 122.34 46.562C122.34 46.5367 122.112 46.5113 121.656 46.486C124.012 46.486 125.938 46.448 127.432 46.372C127.382 46.3213 125.355 46.296 121.352 46.296C121.682 46.2453 122.201 46.1693 122.91 46.068C122.581 46.0173 122.1 45.9413 121.466 45.84C121.998 45.84 122.809 45.802 123.898 45.726C123.772 45.6247 123.518 45.574 123.138 45.574C122.86 45.574 122.581 45.574 122.302 45.574C121.897 45.5233 121.669 45.346 121.618 45.042C121.846 45.0927 122.074 45.0673 122.302 44.966C121.973 44.814 121.821 44.7127 121.846 44.662C122.024 44.6113 122.112 44.5733 122.112 44.548C121.758 44.5227 121.58 44.4467 121.58 44.32C121.606 44.2947 121.618 44.282 121.618 44.282C121.618 44.2313 121.454 44.168 121.124 44.092C122.163 44.092 122.948 44.054 123.48 43.978C122.974 43.9527 122.214 43.8893 121.2 43.788C121.327 43.7373 121.542 43.6993 121.846 43.674C122.15 43.6233 122.366 43.5727 122.492 43.522C122.416 43.446 122.239 43.4207 121.96 43.446C122.771 43.446 123.404 43.408 123.86 43.332C122.518 43.2053 120.972 42.99 119.224 42.686C119.984 42.61 120.884 42.458 121.922 42.23C121.872 42.154 121.656 42.1287 121.276 42.154C121.555 42.1033 121.986 42.0273 122.568 41.926C122.391 41.85 122.163 41.812 121.884 41.812C122.34 41.812 122.708 41.774 122.986 41.698C122.834 41.6727 122.581 41.6473 122.226 41.622C121.872 41.5713 121.606 41.5207 121.428 41.47C121.606 41.47 121.986 41.4067 122.568 41.28C122.391 41.2293 122.125 41.1533 121.77 41.052C121.922 41.0267 122.67 40.9253 124.012 40.748C123.556 40.6973 122.948 40.634 122.188 40.558C122.239 40.33 122.049 40.1273 121.618 39.95C122.53 39.9753 123.303 39.9373 123.936 39.836C123.886 39.8107 123.468 39.7853 122.682 39.76C122.328 39.7347 122.1 39.6333 121.998 39.456C122.125 39.3293 122.328 39.2153 122.606 39.114C122.48 39.0633 122.29 38.9873 122.036 38.886C122.34 38.8353 122.784 38.7593 123.366 38.658C123.316 38.658 122.847 38.5567 121.96 38.354C122.138 38.2273 122.48 38.0753 122.986 37.898C122.809 37.822 122.543 37.784 122.188 37.784C123.86 37.784 125.228 37.746 126.292 37.67C125.279 37.67 123.05 37.632 119.604 37.556C120.592 37.4547 121.682 37.3153 122.872 37.138C122.822 37.062 122.657 37.024 122.378 37.024C122.53 37.024 122.72 36.986 122.948 36.91C122.898 36.8847 122.809 36.8593 122.682 36.834C122.556 36.7833 122.48 36.7327 122.454 36.682C122.834 36.682 123.113 36.6567 123.29 36.606C123.113 36.4287 123.05 36.3273 123.1 36.302C123.303 36.2513 123.417 36.226 123.442 36.226C123.214 36.2007 122.948 36.1373 122.644 36.036C122.822 36.0107 123.088 35.9473 123.442 35.846C123.392 35.77 123.214 35.732 122.91 35.732C123.012 35.732 123.252 35.656 123.632 35.504C123.354 35.3773 123.126 35.314 122.948 35.314C123.176 35.314 123.379 35.276 123.556 35.2C122.974 35.124 122.404 35.048 121.846 34.972C120.706 34.8453 120.149 34.6933 120.174 34.516C120.301 34.44 120.96 34.4147 122.15 34.44C123.392 34.44 124.05 34.44 124.126 34.44C123.924 34.3893 123.632 34.2753 123.252 34.098C123.303 34.0727 123.404 34.0473 123.556 34.022C123.708 33.9713 123.81 33.9333 123.86 33.908C123.683 33.8067 123.366 33.7687 122.91 33.794C123.062 33.718 123.328 33.6167 123.708 33.49C124.114 33.338 124.392 33.224 124.544 33.148C123.582 32.7933 122.796 32.616 122.188 32.616C121.91 32.616 121.77 32.654 121.77 32.73C121.77 32.8567 122.239 32.92 123.176 32.92C123.252 32.8947 123.658 32.7807 124.392 32.578C124.088 32.4767 123.734 32.4387 123.328 32.464C123.632 32.4893 123.873 32.464 124.05 32.388C123.873 32.3373 123.62 32.2613 123.29 32.16C123.67 32.16 123.936 32.122 124.088 32.046C123.886 32.046 123.721 31.894 123.594 31.59C123.696 31.5393 123.822 31.514 123.974 31.514C124.152 31.514 124.532 31.59 125.114 31.742C125.697 31.894 126.166 31.97 126.52 31.97C127.179 31.97 127.736 31.7547 128.192 31.324C127.002 31.2227 125.494 31.172 123.67 31.172C124 31.172 124.139 31.134 124.088 31.058C123.86 31.0073 123.746 30.906 123.746 30.754C123.772 30.45 123.784 30.3233 123.784 30.374C123.987 30.4247 124.215 30.3993 124.468 30.298C124.088 30.2727 123.962 30.1587 124.088 29.956C124.291 29.9307 124.633 29.8673 125.114 29.766C124.836 29.6647 124.392 29.6267 123.784 29.652C123.81 29.652 123.417 29.6393 122.606 29.614C121.72 29.5633 121.289 29.4873 121.314 29.386C121.137 29.3607 121.365 29.3353 121.998 29.31C123.214 29.234 123.873 29.196 123.974 29.196C124.785 29.1453 125.228 29.082 125.304 29.006C125.051 28.93 124.658 28.816 124.126 28.664C125.165 28.664 125.95 28.6387 126.482 28.588C125.874 28.4867 125.241 28.4487 124.582 28.474C124.886 28.474 125.127 28.436 125.304 28.36C124.088 28.284 122.758 28.1827 121.314 28.056C121.441 27.7773 122.074 27.638 123.214 27.638C123.493 27.638 123.924 27.6507 124.506 27.676C125.114 27.7013 125.545 27.714 125.798 27.714C126.33 27.714 126.71 27.676 126.938 27.6C126.862 27.5747 126.115 27.4607 124.696 27.258C125.862 27.2833 126.736 27.2453 127.318 27.144C126.862 27.0173 126.495 26.954 126.216 26.954C126.9 26.954 127.42 26.916 127.774 26.84C126.28 26.7893 124.443 26.688 122.264 26.536C123.303 26.384 124.354 26.194 125.418 25.966C125.621 25.8647 125.912 25.7253 126.292 25.548C126.014 25.396 125.722 25.32 125.418 25.32C125.697 25.3453 125.976 25.3073 126.254 25.206C126.178 25.13 126.001 25.092 125.722 25.092C126.28 25.092 126.634 25.0413 126.786 24.94C126.736 24.9147 126.432 24.8767 125.874 24.826C125.342 24.7753 125.127 24.7247 125.228 24.674C125.076 24.6487 125.178 24.6107 125.532 24.56C125.912 24.5093 126.102 24.4713 126.102 24.446C126.102 24.4207 126.064 24.3953 125.988 24.37L126.254 23.8C126.178 23.7493 125.735 23.648 124.924 23.496C125.102 23.4453 125.19 23.3947 125.19 23.344C125.19 23.3187 125.076 23.2933 124.848 23.268C124.646 23.2427 124.544 23.2173 124.544 23.192C124.57 23.1667 124.671 23.116 124.848 23.04C124.899 23.0653 124.937 23.0907 124.962 23.116C125.19 23.192 125.203 23.2427 125 23.268C125.431 23.2933 125.849 23.2553 126.254 23.154C125.95 23.0527 125.545 23.0147 125.038 23.04C126.406 23.04 127.458 23.002 128.192 22.926C127.584 22.85 126.685 22.812 125.494 22.812C126.964 22.8373 128.281 22.7993 129.446 22.698C128.661 22.622 127.496 22.584 125.95 22.584C126.938 22.6347 127.85 22.5967 128.686 22.47C128.56 22.318 128.281 22.242 127.85 22.242C127.217 22.2673 126.875 22.28 126.824 22.28C125.659 22.204 125.089 22.166 125.114 22.166C124.861 22.09 125.38 22.052 126.672 22.052C127.888 22.052 128.826 22.014 129.484 21.938C129.079 21.862 128.509 21.7607 127.774 21.634C130.08 21.71 131.815 21.672 132.98 21.52C132.448 21.444 130.396 21.406 126.824 21.406C127.686 21.254 129.269 21.1273 131.574 21.026C134.133 20.95 135.514 20.8993 135.716 20.874C134.982 20.7727 133.994 20.7347 132.752 20.76L140.2 20.608C144.456 21.064 146.584 23.0653 146.584 26.612C146.584 27.372 146.483 28.208 146.28 29.12L145.368 33.452H136.59C136.59 33.376 136.527 33.3 136.4 33.224C136.299 33.1227 136.261 32.958 136.286 32.73C136.641 32.73 137.211 32.6413 137.996 32.464C137.946 32.388 137.768 32.3627 137.464 32.388C138.3 32.388 138.946 32.35 139.402 32.274C139.048 32.2233 138.503 32.1853 137.768 32.16C137.059 32.1093 136.527 32.0713 136.172 32.046C136.628 31.9953 137.325 31.9193 138.262 31.818C138.186 31.742 137.882 31.704 137.35 31.704C137.629 31.7293 137.857 31.704 138.034 31.628C137.857 31.5773 137.591 31.5393 137.236 31.514C136.882 31.4633 136.628 31.4253 136.476 31.4C137.211 31.324 137.528 31.1847 137.426 30.982C137.857 30.9313 138.579 30.8553 139.592 30.754C138.782 30.6527 137.832 30.6147 136.742 30.64C137.097 30.6653 137.477 30.6273 137.882 30.526C137.553 30.4247 137.148 30.3867 136.666 30.412C137.122 30.412 137.996 30.336 139.288 30.184C138.706 30.1587 137.844 30.0953 136.704 29.994C136.856 29.9433 137.122 29.8673 137.502 29.766C137.426 29.69 137.249 29.652 136.97 29.652C137.502 29.652 137.958 29.614 138.338 29.538C138.11 29.4873 137.616 29.462 136.856 29.462C137.186 29.4113 137.667 29.3733 138.3 29.348C138.959 29.2973 139.453 29.2593 139.782 29.234C138.972 29.1327 138.022 29.0947 136.932 29.12C137.034 29.12 137.173 29.082 137.35 29.006C137.528 28.9047 137.654 28.854 137.73 28.854L141.492 28.778C141.087 28.7527 140.454 28.7273 139.592 28.702C138.756 28.6513 138.136 28.6007 137.73 28.55C138.212 28.6007 138.68 28.5627 139.136 28.436C139.111 28.436 138.718 28.398 137.958 28.322C137.604 28.2967 137.363 28.1573 137.236 27.904C137.363 27.7773 137.692 27.7013 138.224 27.676C138.579 27.676 138.934 27.6887 139.288 27.714C139.466 27.6887 139.605 27.6507 139.706 27.6C139.022 27.4987 138.174 27.4607 137.16 27.486C137.363 27.4353 137.654 27.3593 138.034 27.258C137.958 27.182 137.781 27.144 137.502 27.144C138.034 27.144 138.452 27.1187 138.756 27.068C138.427 26.9667 138.072 26.9287 137.692 26.954C137.692 26.954 137.882 26.878 138.262 26.726C138.11 26.65 137.895 26.612 137.616 26.612C137.718 26.6373 137.908 26.5993 138.186 26.498C138.136 26.422 137.908 26.3967 137.502 26.422C138.11 26.3713 139.048 26.2573 140.314 26.08C140.086 26.004 139.567 25.966 138.756 25.966C138.047 25.9913 137.578 25.8773 137.35 25.624C137.452 25.4973 137.642 25.434 137.92 25.434C138.224 25.434 138.44 25.396 138.566 25.32C137.376 25.1427 136.641 25.054 136.362 25.054C134.969 25.054 134.146 25.6493 133.892 26.84L130.282 43.902C130.232 44.1047 130.206 44.2947 130.206 44.472C130.206 45.2573 130.776 45.65 131.916 45.65C132.322 45.65 132.841 45.5993 133.474 45.498C133.373 45.3713 133.208 45.308 132.98 45.308C133.639 45.308 134.374 45.2067 135.184 45.004C135.032 44.9027 134.817 44.852 134.538 44.852C134.285 44.852 134.044 44.8393 133.816 44.814C133.614 44.7887 133.512 44.6873 133.512 44.51C133.614 44.3833 133.918 44.3073 134.424 44.282C134.779 44.282 135.121 44.282 135.45 44.282C135.628 44.282 135.78 44.2567 135.906 44.206C135.476 44.13 134.716 44.092 133.626 44.092L135.412 43.94C135.691 43.9147 136.16 43.864 136.818 43.788C136.717 43.7373 136.185 43.674 135.222 43.598C134.64 43.5473 134.196 43.3067 133.892 42.876C134.298 42.9013 134.665 42.876 134.994 42.8C134.766 42.6987 134.424 42.5847 133.968 42.458C134.399 42.5593 134.741 42.458 134.994 42.154C135.121 42.078 135.298 42.0653 135.526 42.116C135.78 42.1413 135.97 42.116 136.096 42.04C136.046 41.9893 135.754 41.9513 135.222 41.926C134.792 41.8753 134.551 41.7233 134.5 41.47C134.703 41.318 135.045 41.1913 135.526 41.09C136.362 40.938 136.818 40.862 136.894 40.862C136.261 40.7607 135.412 40.7227 134.348 40.748C134.5 40.6467 134.842 40.5327 135.374 40.406C135.197 40.3047 134.88 40.2667 134.424 40.292C134.627 40.2667 134.931 40.2413 135.336 40.216C135.742 40.1653 136.046 40.1147 136.248 40.064C135.944 39.9627 135.539 39.9373 135.032 39.988C135.362 39.988 135.64 39.95 135.868 39.874C135.792 39.8233 135.64 39.7853 135.412 39.76C135.21 39.7347 135.058 39.6967 134.956 39.646C135.159 39.5447 135.374 39.494 135.602 39.494C135.83 39.4687 136.008 39.418 136.134 39.342C136.058 39.342 135.957 39.3547 135.83 39.38C135.729 39.4053 135.666 39.4053 135.64 39.38C135.59 39.3547 135.59 39.266 135.64 39.114C135.412 39.0887 135.108 39.0127 134.728 38.886L135.564 38.734C135.894 38.7087 136.413 38.6453 137.122 38.544C136.742 38.5187 136.21 38.4427 135.526 38.316H144.342L143.658 41.508Z" fill="white"/>
<path d="M163.197 50.476L156.281 50.286C156.383 50.2353 156.573 50.1467 156.851 50.02C156.826 49.9693 156.674 49.9567 156.395 49.982C156.421 49.9567 156.281 49.906 155.977 49.83C155.699 49.7287 155.585 49.6653 155.635 49.64C155.863 49.6653 156.091 49.64 156.319 49.564C156.674 49.5387 157.231 49.488 157.991 49.412C157.662 49.336 157.168 49.3107 156.509 49.336C156.585 49.336 156.725 49.3107 156.927 49.26C156.877 49.2093 156.801 49.1587 156.699 49.108C156.623 49.0573 156.547 49.0193 156.471 48.994C156.522 48.918 156.649 48.8167 156.851 48.69C156.801 48.614 156.674 48.5887 156.471 48.614C156.877 48.614 157.181 48.5887 157.383 48.538C157.206 48.4873 156.915 48.462 156.509 48.462C156.56 48.462 156.699 48.424 156.927 48.348C156.902 48.196 156.75 48.0947 156.471 48.044C156.851 47.9933 157.409 47.9173 158.143 47.816C157.839 47.816 157.409 47.778 156.851 47.702C156.725 47.6767 156.649 47.588 156.623 47.436C156.725 47.3347 156.851 47.284 157.003 47.284C157.155 47.284 157.282 47.246 157.383 47.17C157.231 47.1193 157.067 47.094 156.889 47.094C157.421 47.094 157.852 47.0687 158.181 47.018C157.877 46.9927 157.396 46.942 156.737 46.866C157.041 46.866 157.282 46.8407 157.459 46.79C157.181 46.714 156.902 46.676 156.623 46.676H154.191C153.583 48.348 153.153 49.6147 152.899 50.476L145.831 50.362C145.983 50.3367 146.211 50.286 146.515 50.21C146.237 50.0327 146.047 49.944 145.945 49.944C146.173 49.9187 145.895 49.678 145.109 49.222C145.109 49.0953 145.388 49.0193 145.945 48.994C146.503 48.9433 146.731 48.8673 146.629 48.766C146.807 48.7913 146.971 48.7407 147.123 48.614C147.022 48.5633 146.87 48.4747 146.667 48.348L147.427 48.196C147.351 48.0947 147.136 48.044 146.781 48.044C146.984 48.0693 147.149 48.044 147.275 47.968C147.225 47.9173 147.06 47.892 146.781 47.892C146.984 47.7907 147.339 47.6893 147.845 47.588C147.592 47.4867 147.275 47.436 146.895 47.436C147.073 47.3853 147.351 47.322 147.731 47.246C147.731 47.246 146.997 47.284 145.527 47.36C145.502 47.3093 145.781 47.208 146.363 47.056C146.971 46.904 147.263 46.8027 147.237 46.752C147.465 46.7267 147.845 46.676 148.377 46.6C148.276 46.5747 148.175 46.5493 148.073 46.524C148.073 46.3973 147.985 46.3467 147.807 46.372C147.478 46.372 147.313 46.372 147.313 46.372C147.465 46.3467 147.719 46.3213 148.073 46.296C148.428 46.2707 148.681 46.2453 148.833 46.22C148.555 46.1947 148.124 46.144 147.541 46.068C147.719 46.0427 148.01 45.992 148.415 45.916C147.326 45.5613 146.503 45.384 145.945 45.384C145.743 45.384 145.629 45.4093 145.603 45.46C145.603 45.6627 146.249 45.764 147.541 45.764C147.567 45.764 147.668 45.7767 147.845 45.802C147.972 45.802 148.061 45.65 148.111 45.346C148.061 45.2953 147.947 45.2193 147.769 45.118C147.795 45.118 147.909 45.1053 148.111 45.08C148.238 45.08 148.276 45.0293 148.225 44.928C147.896 44.7 147.174 44.548 146.059 44.472C146.287 44.4213 147.25 44.206 148.947 43.826C148.821 43.7753 148.631 43.75 148.377 43.75C148.555 43.75 148.719 43.7247 148.871 43.674C148.795 43.5727 148.656 43.522 148.453 43.522C148.96 43.522 149.353 43.4967 149.631 43.446C148.871 43.294 148.187 43.218 147.579 43.218C147.25 43.218 147.073 43.2307 147.047 43.256C147.199 43.332 147.668 43.37 148.453 43.37C147.947 43.2687 147.453 43.0913 146.971 42.838C147.807 42.7873 148.719 42.724 149.707 42.648C149.479 42.6227 149.188 42.5593 148.833 42.458C148.859 42.458 149.049 42.3947 149.403 42.268C149.302 42.2173 149.15 42.1287 148.947 42.002C149.302 42.0273 149.606 42.002 149.859 41.926C149.657 41.9007 149.403 41.85 149.099 41.774C149.226 41.7993 149.391 41.774 149.593 41.698C149.239 41.546 149.112 41.47 149.213 41.47C149.34 41.47 149.695 41.4067 150.277 41.28C150.227 41.2547 149.986 41.242 149.555 41.242C150.011 41.242 150.404 41.204 150.733 41.128C150.48 41.1027 150.163 41.0773 149.783 41.052C149.631 41.0267 149.517 40.976 149.441 40.9C149.593 40.8747 149.821 40.7987 150.125 40.672C149.999 40.596 149.834 40.5707 149.631 40.596C149.91 40.596 150.113 40.5707 150.239 40.52C149.91 40.292 149.733 40.178 149.707 40.178C150.163 40.2033 150.569 40.178 150.923 40.102C150.873 40.0513 150.214 40.0387 148.947 40.064C147.706 40.1147 147.047 40.1147 146.971 40.064C146.946 40.0133 147.465 39.95 148.529 39.874C149.593 39.798 150.163 39.7473 150.239 39.722C150.138 39.6967 150.011 39.6333 149.859 39.532C150.366 39.532 150.733 39.5193 150.961 39.494C150.733 39.418 150.442 39.3927 150.087 39.418C150.239 39.3927 150.455 39.304 150.733 39.152C150.708 39.152 150.619 39.152 150.467 39.152C150.315 39.1267 150.239 39.038 150.239 38.886C150.417 38.8607 150.746 38.7973 151.227 38.696C151.05 38.62 150.733 38.5947 150.277 38.62C150.379 38.5693 150.518 38.468 150.695 38.316C150.695 38.2907 150.683 38.2527 150.657 38.202C150.759 38.202 150.898 38.1513 151.075 38.05C150.923 38.0247 150.733 37.974 150.505 37.898C150.784 37.8727 151.189 37.822 151.721 37.746C150.581 37.67 149.403 37.594 148.187 37.518C148.187 37.366 148.643 37.2773 149.555 37.252C150.239 37.2267 150.632 37.2267 150.733 37.252C150.86 37.252 151.037 37.138 151.265 36.91C151.265 36.8847 151.177 36.7833 150.999 36.606C151.177 36.5553 151.557 36.4793 152.139 36.378C151.911 36.3273 151.595 36.2513 151.189 36.15C151.392 36.15 151.759 36.0993 152.291 35.998C152.114 35.9727 151.835 35.9093 151.455 35.808C151.709 35.808 151.81 35.7827 151.759 35.732C151.81 35.6307 151.937 35.58 152.139 35.58C152.367 35.58 152.519 35.5547 152.595 35.504C152.545 35.4533 152.317 35.428 151.911 35.428C152.139 35.428 152.38 35.4027 152.633 35.352C152.481 35.3267 152.329 35.276 152.177 35.2C152.304 35.1747 152.367 35.162 152.367 35.162C152.266 35.1367 152.076 35.124 151.797 35.124C152.025 35.124 152.266 35.0987 152.519 35.048L151.683 34.782C151.835 34.7567 152.101 34.706 152.481 34.63C151.164 34.554 149.771 34.4527 148.301 34.326C148.479 34.174 149.315 34.06 150.809 33.984C152.456 33.908 153.305 33.8573 153.355 33.832C153.051 33.756 152.659 33.7307 152.177 33.756C152.431 33.7813 152.709 33.756 153.013 33.68C152.785 33.6547 152.532 33.566 152.253 33.414C152.583 33.4393 152.823 33.4267 152.975 33.376C152.849 33.3 152.646 33.2747 152.367 33.3C152.899 33.3 153.305 33.2747 153.583 33.224C153.33 33.1987 153.001 33.148 152.595 33.072C152.697 33.0213 152.887 32.958 153.165 32.882C153.039 32.8567 152.849 32.806 152.595 32.73C152.747 32.73 152.963 32.6793 153.241 32.578C153.064 32.5527 152.836 32.502 152.557 32.426C152.709 32.3753 152.912 32.3373 153.165 32.312C153.444 32.2867 153.659 32.2613 153.811 32.236C153.685 32.1853 152.861 32.1473 151.341 32.122C149.847 32.0713 149.011 32.008 148.833 31.932C150.379 31.8053 152.089 31.6533 153.963 31.476C153.786 31.4507 153.52 31.3873 153.165 31.286C153.089 31.2353 153.051 31.1973 153.051 31.172C153.051 31.1467 153.14 31.134 153.317 31.134C153.495 31.1087 153.609 31.0833 153.659 31.058C153.634 31.0073 153.558 30.9567 153.431 30.906C153.33 30.83 153.267 30.7667 153.241 30.716C153.343 30.7413 153.457 30.754 153.583 30.754C153.71 30.7287 153.748 30.6147 153.697 30.412C153.697 30.3613 153.875 30.3107 154.229 30.26C154.305 30.26 154.369 30.2347 154.419 30.184C154.318 30.1587 153.583 30.1333 152.215 30.108C150.873 30.0573 150.1 30.0447 149.897 30.07C149.923 30.0447 150.594 29.994 151.911 29.918C153.153 29.8167 153.761 29.7407 153.735 29.69C154.622 29.69 155.23 29.6773 155.559 29.652C155.129 29.6013 154.508 29.5127 153.697 29.386C153.773 29.386 153.925 29.3607 154.153 29.31C154.381 29.234 154.533 29.196 154.609 29.196H163.767L163.197 50.476ZM158.333 40.976C157.903 40.976 157.611 40.8747 157.459 40.672C157.561 40.6213 157.763 40.596 158.067 40.596C157.687 40.3933 157.497 40.2793 157.497 40.254C157.497 40.2033 157.535 40.1273 157.611 40.026C157.713 39.8993 157.814 39.7727 157.915 39.646C157.839 39.6207 157.713 39.5447 157.535 39.418C157.839 39.2913 158.055 39.228 158.181 39.228C158.004 39.2533 157.814 39.2027 157.611 39.076C157.662 38.9747 157.662 38.8227 157.611 38.62C157.865 38.4427 158.207 38.3667 158.637 38.392C158.536 38.4173 158.422 38.43 158.295 38.43C157.839 38.43 157.611 38.278 157.611 37.974C157.611 37.7713 157.763 37.5813 158.067 37.404C157.865 37.252 157.903 37.062 158.181 36.834C158.029 36.8593 157.903 36.8213 157.801 36.72C157.979 36.6693 158.283 36.6313 158.713 36.606C158.46 36.606 158.27 36.5807 158.143 36.53C158.245 36.4793 158.409 36.454 158.637 36.454C158.359 36.5047 158.093 36.454 157.839 36.302C158.042 36.1753 158.169 36.1247 158.219 36.15C158.118 36.15 158.042 36.036 157.991 35.808L158.637 35.656C158.333 35.6813 158.105 35.656 157.953 35.58C157.953 35.4533 157.991 35.2507 158.067 34.972C158.371 34.896 158.612 34.858 158.789 34.858C158.46 34.858 158.207 34.8327 158.029 34.782C158.384 34.6553 158.65 34.6047 158.827 34.63C158.726 34.63 158.587 34.6173 158.409 34.592C158.257 34.5413 158.143 34.516 158.067 34.516C158.093 34.364 158.08 34.1993 158.029 34.022L154.837 42.838L157.649 42.762C157.599 42.762 157.497 42.648 157.345 42.42C157.371 42.344 157.421 42.1413 157.497 41.812H158.067C157.89 41.7867 157.649 41.7487 157.345 41.698C157.548 41.6473 157.789 41.622 158.067 41.622C157.89 41.5967 157.675 41.5207 157.421 41.394C157.573 41.2927 157.751 41.242 157.953 41.242C157.801 41.2167 157.611 41.1533 157.383 41.052C157.586 41.0013 157.903 40.976 158.333 40.976Z" fill="white"/>
<path d="M184.45 34.858C184.349 35.2887 184.248 35.7193 184.146 36.15C183.969 36.7327 183.652 37.328 183.196 37.936C182.766 38.544 181.714 38.9493 180.042 39.152C180.042 39.152 180.118 39.2153 180.27 39.342C182.018 39.722 182.892 40.5453 182.892 41.812C182.892 41.9893 182.88 42.154 182.854 42.306L181.144 50.286H175.71C175.685 50.1593 175.457 50.096 175.026 50.096C175.102 50.1213 175.242 50.096 175.444 50.02V49.944C175.419 49.8933 175.28 49.868 175.026 49.868C175.28 49.868 175.47 49.8427 175.596 49.792C175.444 49.7667 175.229 49.7033 174.95 49.602C175.153 49.602 175.292 49.5767 175.368 49.526C175.394 49.45 175.267 49.412 174.988 49.412L175.102 48.956C175.457 48.9813 175.748 48.9687 175.976 48.918C175.748 48.842 175.495 48.8167 175.216 48.842C175.672 48.842 176.04 48.8167 176.318 48.766C176.09 48.7153 175.698 48.69 175.14 48.69C175.52 48.6393 176.065 48.576 176.774 48.5C176.648 48.4747 176.204 48.424 175.444 48.348L175.482 48.158C175.077 48.1073 174.912 48.0567 174.988 48.006C174.836 47.854 174.76 47.8033 174.76 47.854C177.066 47.854 178.117 47.8667 177.914 47.892C177.686 47.8413 177.142 47.7907 176.28 47.74C175.444 47.6893 174.912 47.6513 174.684 47.626C175.647 47.626 176.141 47.6133 176.166 47.588C176.141 47.5627 175.9 47.5247 175.444 47.474C175.09 47.4233 174.722 47.3853 174.342 47.36C174.342 47.3347 174.342 47.322 174.342 47.322C174.494 47.2967 174.9 47.284 175.558 47.284C176.217 47.284 176.61 47.2713 176.736 47.246C176.154 47.094 175.394 47.018 174.456 47.018C174.938 46.9927 175.495 46.9547 176.128 46.904C176.027 46.752 175.546 46.7013 174.684 46.752C176.002 46.752 176.66 46.752 176.66 46.752C176.432 46.7267 176.078 46.676 175.596 46.6C175.799 46.6 176.103 46.5493 176.508 46.448C176.356 46.4227 176.103 46.3593 175.748 46.258C175.875 46.3087 176.052 46.2833 176.28 46.182C176.23 46.1313 176.103 46.1187 175.9 46.144C176.103 46.144 176.344 46.106 176.622 46.03C176.597 45.954 176.306 45.916 175.748 45.916C175.85 45.84 176.09 45.7513 176.47 45.65C176.344 45.574 176.154 45.5487 175.9 45.574C176.154 45.574 176.356 45.5487 176.508 45.498C176.432 45.3967 176.293 45.346 176.09 45.346C176.521 45.346 176.85 45.3207 177.078 45.27C176.85 45.2193 176.496 45.156 176.014 45.08C176.141 45.08 176.242 45.0547 176.318 45.004C176.344 44.9787 176.23 44.9027 175.976 44.776C176.078 44.6747 176.42 44.624 177.002 44.624C177.281 44.624 177.522 44.5987 177.724 44.548C177.496 44.4973 177.04 44.472 176.356 44.472C176.432 44.4213 176.572 44.3327 176.774 44.206C176.648 44.1553 176.496 44.13 176.318 44.13C176.698 44.13 177.028 44.1047 177.306 44.054C177.028 43.9527 176.749 43.902 176.47 43.902C176.42 43.902 176.458 43.8767 176.584 43.826C176.534 43.7753 176.407 43.75 176.204 43.75C176.407 43.75 176.711 43.7247 177.116 43.674C176.99 43.6233 176.825 43.598 176.622 43.598C176.85 43.598 177.091 43.5727 177.344 43.522C177.116 43.4967 176.8 43.4333 176.394 43.332C176.572 43.332 176.838 43.2813 177.192 43.18C176.964 43.104 176.711 43.0787 176.432 43.104C176.635 43.1293 176.876 43.104 177.154 43.028C177.104 42.9773 176.939 42.952 176.66 42.952C176.863 42.8253 176.926 42.7113 176.85 42.61C176.622 42.61 176.99 42.534 177.952 42.382C177.775 42.3313 177.395 42.3187 176.812 42.344C176.812 42.2933 176.85 42.23 176.926 42.154C176.926 42.1287 176.774 42.0527 176.47 41.926C176.977 41.926 177.319 41.9007 177.496 41.85C177.268 41.7993 176.952 41.7107 176.546 41.584C176.749 41.584 176.888 41.5587 176.964 41.508C176.838 41.4827 176.711 41.4573 176.584 41.432C176.584 41.4067 176.622 41.3813 176.698 41.356C176.546 41.204 176.458 41.1533 176.432 41.204C176.584 41.1787 176.8 41.128 177.078 41.052C176.952 40.976 176.749 40.9507 176.47 40.976C177.281 40.976 177.889 40.9507 178.294 40.9C178.041 40.824 177.686 40.7987 177.23 40.824C178.421 40.824 179.346 40.786 180.004 40.71H174.684L172.67 50.286H167.54L167.578 50.172C167.325 50.096 166.742 50.0327 165.83 49.982C166.033 49.9313 166.755 49.8427 167.996 49.716C167.667 49.64 167.173 49.6147 166.514 49.64C166.59 49.64 166.73 49.602 166.932 49.526C166.856 49.526 166.54 49.5007 165.982 49.45C165.45 49.374 165.146 49.3233 165.07 49.298C165.374 49.298 165.678 49.298 165.982 49.298C166.337 49.2473 166.92 49.1713 167.73 49.07C167.173 48.9687 166.654 48.918 166.172 48.918C166.375 48.918 166.616 48.8927 166.894 48.842C166.768 48.766 166.565 48.728 166.286 48.728C166.362 48.728 166.438 48.7027 166.514 48.652C166.464 48.6013 166.35 48.576 166.172 48.576C167.059 48.576 167.743 48.5507 168.224 48.5C167.971 48.424 167.515 48.3987 166.856 48.424C167.262 48.3987 167.87 48.348 168.68 48.272C168.098 48.196 167.439 48.1707 166.704 48.196C166.78 48.196 166.894 48.1453 167.046 48.044C166.92 47.968 166.755 47.9427 166.552 47.968C166.958 47.968 167.262 47.9427 167.464 47.892C167.287 47.8413 166.97 47.816 166.514 47.816C166.717 47.8413 166.958 47.816 167.236 47.74C167.616 47.6387 167.857 47.5753 167.958 47.55C167.629 47.5247 167.135 47.474 166.476 47.398C166.856 47.3727 167.439 47.322 168.224 47.246C167.794 47.2207 167.211 47.132 166.476 46.98C168.072 47.0053 169.529 46.98 170.846 46.904C169.757 46.8787 168.744 46.8533 167.806 46.828C167.072 46.7773 166.641 46.752 166.514 46.752C166.793 46.7267 167.198 46.676 167.73 46.6C167.452 46.5747 167.084 46.4987 166.628 46.372C167.211 46.372 167.743 46.3467 168.224 46.296C168.047 46.22 167.718 46.1947 167.236 46.22C168.047 46.22 168.68 46.1947 169.136 46.144C168.883 46.1187 168.478 46.0933 167.92 46.068C167.363 46.0173 166.958 45.9793 166.704 45.954C167.034 45.9793 167.401 45.954 167.806 45.878C167.604 45.7767 167.426 45.726 167.274 45.726C167.68 45.726 168.174 45.6627 168.756 45.536C168.554 45.384 168.275 45.308 167.92 45.308C167.338 45.3333 167.034 45.346 167.008 45.346C167.439 45.346 167.844 45.3207 168.224 45.27C167.996 45.2447 167.642 45.1813 167.16 45.08C167.414 45.0547 167.794 45.004 168.3 44.928C168.148 44.9027 167.958 44.852 167.73 44.776C167.958 44.776 168.098 44.7507 168.148 44.7C167.971 44.6747 167.692 44.624 167.312 44.548C167.591 44.548 167.996 44.4973 168.528 44.396C168.351 44.3707 168.098 44.3327 167.768 44.282C167.464 44.206 167.236 44.1553 167.084 44.13C167.616 44.1553 168.047 44.13 168.376 44.054C168.148 43.978 167.895 43.9527 167.616 43.978C168.224 43.978 168.693 43.9527 169.022 43.902C168.617 43.8767 168.034 43.826 167.274 43.75C167.629 43.7753 167.958 43.75 168.262 43.674C168.212 43.6233 167.971 43.598 167.54 43.598C167.92 43.598 168.452 43.5473 169.136 43.446C168.3 43.3953 167.312 43.3067 166.172 43.18C166.983 43.104 168.034 43.0027 169.326 42.876C169.124 42.8 168.516 42.7873 167.502 42.838C166.59 42.8633 166.046 42.8 165.868 42.648C166.704 42.5973 167.692 42.5087 168.832 42.382C168.756 42.3313 167.908 42.306 166.286 42.306C167.806 42.306 169.01 42.2553 169.896 42.154C169.466 42.1033 168.199 42.078 166.096 42.078C166.274 41.9767 166.274 41.926 166.096 41.926C167.16 41.926 167.895 41.85 168.3 41.698C168.148 41.622 167.439 41.584 166.172 41.584C167.566 41.584 168.655 41.5333 169.44 41.432C169.187 41.356 168.87 41.318 168.49 41.318C168.44 41.2927 168.478 41.2547 168.604 41.204C168.554 41.1533 168.427 41.128 168.224 41.128C168.528 41.1027 168.997 41.0773 169.63 41.052C170.264 41.0013 170.732 40.9633 171.036 40.938C171.011 40.938 170.2 40.938 168.604 40.938C168.731 40.938 168.465 40.8367 167.806 40.634C168.06 40.634 168.44 40.6087 168.946 40.558C168.82 40.5073 168.617 40.482 168.338 40.482C168.744 40.4567 169.352 40.406 170.162 40.33C169.554 40.2287 169.01 40.178 168.528 40.178C168.883 40.2033 169.25 40.178 169.63 40.102C169.402 40.026 169.048 40.0007 168.566 40.026C168.642 40.0513 168.782 40.026 168.984 39.95C168.807 39.8993 168.503 39.874 168.072 39.874C168.3 39.8487 168.579 39.7853 168.908 39.684C168.883 39.6333 168.731 39.6207 168.452 39.646C168.554 39.5953 168.731 39.532 168.984 39.456C168.807 39.4307 168.554 39.38 168.224 39.304C168.275 39.2787 168.845 39.2027 169.934 39.076C169.504 39 168.921 38.9747 168.186 39C168.288 38.9747 168.465 38.9113 168.718 38.81C168.668 38.7593 168.592 38.734 168.49 38.734C169.174 38.734 169.694 38.7087 170.048 38.658C169.744 38.6327 169.326 38.582 168.794 38.506C168.997 38.506 169.124 38.4807 169.174 38.43C168.921 38.354 168.668 38.3287 168.414 38.354C168.845 38.354 169.174 38.3287 169.402 38.278C169.174 38.1767 168.946 38.126 168.718 38.126C168.82 38.126 168.908 38.1007 168.984 38.05C168.858 37.9993 168.668 37.936 168.414 37.86C169.174 37.86 169.706 37.8347 170.01 37.784C169.858 37.7587 169.618 37.7333 169.288 37.708C168.959 37.6827 168.718 37.6573 168.566 37.632C169.25 37.632 169.82 37.6067 170.276 37.556C169.947 37.5053 169.44 37.48 168.756 37.48C169.162 37.48 169.782 37.4293 170.618 37.328C170.365 37.252 169.934 37.2267 169.326 37.252C170.34 37.252 171.112 37.2267 171.644 37.176C170.606 37.0493 169.795 36.986 169.212 36.986C169.972 37.0113 170.694 36.986 171.378 36.91C170.948 36.8593 170.264 36.834 169.326 36.834C169.58 36.8593 169.846 36.834 170.124 36.758C169.922 36.6567 169.58 36.606 169.098 36.606C168.794 36.606 168.49 36.5933 168.186 36.568C167.502 36.5427 167.224 36.5047 167.35 36.454C167.097 36.4033 166.704 36.378 166.172 36.378C168.376 36.4287 169.694 36.4287 170.124 36.378C169.01 36.3273 167.844 36.2513 166.628 36.15C166.704 36.15 166.882 36.0993 167.16 35.998C166.983 35.9473 166.654 35.922 166.172 35.922C166.375 35.8967 166.654 35.8207 167.008 35.694C166.958 35.6433 166.704 35.618 166.248 35.618C167.54 35.542 169.111 35.4153 170.96 35.238C170.479 35.2633 169.833 35.1873 169.022 35.01C170.137 35.01 170.998 34.9847 171.606 34.934C171.378 34.9087 171.024 34.8833 170.542 34.858C170.061 34.8327 169.706 34.8073 169.478 34.782C169.858 34.782 170.492 34.7313 171.378 34.63C171.074 34.5793 170.555 34.554 169.82 34.554C170.023 34.554 170.188 34.5287 170.314 34.478C169.073 34.4527 167.692 34.402 166.172 34.326L169.592 34.288C169.592 34.2373 169.668 34.1613 169.82 34.06C169.77 34.0093 169.643 33.984 169.44 33.984C170.048 33.984 170.517 33.9587 170.846 33.908C170.542 33.8573 170.023 33.832 169.288 33.832C169.466 33.7813 169.77 33.6927 170.2 33.566C169.972 33.5153 169.681 33.5027 169.326 33.528C169.681 33.4773 170.188 33.414 170.846 33.338C170.694 33.262 170.378 33.2367 169.896 33.262C170.124 33.2873 170.352 33.262 170.58 33.186C170.327 33.1353 169.972 33.11 169.516 33.11C169.744 33.11 169.947 33.0847 170.124 33.034C169.998 32.958 169.77 32.9327 169.44 32.958C169.922 32.882 170.504 32.806 171.188 32.73C171.011 32.6793 170.745 32.616 170.39 32.54C170.036 32.464 169.77 32.4133 169.592 32.388C169.846 32.4133 170.112 32.388 170.39 32.312C170.34 32.2613 170.226 32.236 170.048 32.236C170.15 32.236 170.238 32.2107 170.314 32.16C170.264 32.1093 170.175 32.084 170.048 32.084L175.406 31.97H169.972C170.378 31.9447 170.986 31.9067 171.796 31.856C170.226 31.6533 169.44 31.59 169.44 31.666C169.466 31.6913 169.592 31.7167 169.82 31.742C170.479 31.7673 171.049 31.742 171.53 31.666C171.125 31.6153 170.542 31.59 169.782 31.59C169.909 31.59 170.137 31.5647 170.466 31.514C170.796 31.4633 171.036 31.438 171.188 31.438C170.935 31.362 170.669 31.3367 170.39 31.362C170.998 31.362 171.467 31.3367 171.796 31.286C171.492 31.2353 171.036 31.21 170.428 31.21C170.656 31.21 170.897 31.1847 171.15 31.134C170.948 31.0833 170.606 31.058 170.124 31.058C171.543 31.058 172.62 31.0327 173.354 30.982C172.062 30.8553 171.049 30.792 170.314 30.792C170.517 30.8173 170.694 30.792 170.846 30.716L170.618 30.298C171.074 30.3993 171.53 30.412 171.986 30.336C171.632 30.3107 171.087 30.26 170.352 30.184C170.783 30.184 171.188 30.1587 171.568 30.108C171.315 30.0573 170.922 30.032 170.39 30.032C170.644 30.032 170.91 29.994 171.188 29.918C171.062 29.8927 170.314 29.88 168.946 29.88C167.578 29.8547 166.831 29.8293 166.704 29.804C166.882 29.804 167.553 29.7533 168.718 29.652C169.985 29.5507 170.656 29.462 170.732 29.386C170.682 29.31 170.555 29.2847 170.352 29.31C170.606 29.31 170.77 29.2467 170.846 29.12C171.302 29.12 172.151 29.1073 173.392 29.082C174.482 29.0313 175.064 29.006 175.14 29.006C178.763 29.006 181.094 29.158 182.132 29.462C183.83 29.9433 184.678 31.0707 184.678 32.844C184.678 33.4267 184.602 34.098 184.45 34.858ZM180.08 39.152C179.472 39.152 178.56 39.114 177.344 39.038C177.775 38.9113 178.155 38.8607 178.484 38.886C178.13 38.9113 177.902 38.8607 177.8 38.734C178.535 38.6327 179.016 38.582 179.244 38.582C178.712 38.582 178.256 38.5567 177.876 38.506V38.43C177.952 38.3793 178.079 38.354 178.256 38.354C178.079 38.354 177.965 38.316 177.914 38.24C177.509 38.1387 177.18 37.9993 176.926 37.822C176.85 37.822 176.762 37.822 176.66 37.822C176.559 37.7967 176.521 37.746 176.546 37.67C176.901 37.5433 177.838 37.5053 179.358 37.556C178.117 37.556 177.167 37.48 176.508 37.328C176.863 37.252 177.661 37.2393 178.902 37.29C178.75 37.29 178.75 37.2647 178.902 37.214C178.269 37.1127 177.585 36.9733 176.85 36.796C177.154 36.72 178.003 36.7327 179.396 36.834C179.143 36.834 178.928 36.7833 178.75 36.682C178.649 36.682 178.522 36.6567 178.37 36.606C178.396 36.5553 178.459 36.4793 178.56 36.378H178.94C178.712 36.3527 178.573 36.3147 178.522 36.264L178.636 35.808C178.712 35.7573 178.814 35.732 178.94 35.732C178.763 35.732 178.598 35.7067 178.446 35.656C178.522 35.6307 178.598 35.58 178.674 35.504H179.548C179.32 35.504 179.016 35.4407 178.636 35.314C178.915 35.238 179.219 35.2127 179.548 35.238C179.27 35.2887 178.877 35.238 178.37 35.086C178.472 35.01 178.636 34.896 178.864 34.744C178.788 34.744 178.7 34.744 178.598 34.744C178.32 34.7693 178.168 34.7187 178.142 34.592H176.622L175.634 39.152H180.08Z" fill="white"/>
</svg>
